<svg xmlns="http://www.w3.org/2000/svg" width="200" height="150"><defs><clipPath clipPathUnits="userSpaceOnUse" id="a"><path style="fill:#f9fbfa;fill-opacity:1;stroke:none;stroke-width:1.15120327;stroke-opacity:1" d="M-3-21.333h208v112H-3z"/></clipPath></defs><g style="display:inline" transform="translate(0 -.667)"><ellipse style="display:inline;fill:#79accd;fill-opacity:1;stroke-width:1.21603298" ry="95.603" rx="101.349" cy="96.561" cx="100.71" clip-path="url(#a)"/><ellipse cx="100.871" cy="96.561" rx="85.573" ry="77.727" style="fill:#fff;fill-opacity:1;stroke-width:1.00752306"/></g><path d="M96.298 32.957c3.052-.016 6.103-.01 9.155 0 .035 3.22.081 6.444.117 9.67 3.602.02 7.21.03 10.818-.006.398 3.113.244 6.261.127 9.389a390.485 390.485 0 0 0-10.935-.036c-.097 6.924.148 13.849.046 20.773 5.011.898 9.491 3.353 13.67 6.154.296-5.072-.47-10.583 2.24-15.165 3.128-5.955 9.828-10.006 16.594-9.547 3.674-.143 7.24 1.173 10.256 3.21 4.843 3.28 7.72 9.006 7.89 14.812-.067 15.824-.026 31.647-.031 47.465-.041 2.688.017 5.339.04 7.986-2.95.1-6.307.112-9.292 0-.112-18.288 0-36.581-.06-54.869-.036-3.291-1.629-6.766-4.66-8.292-1.826-1.199-4.117-1.168-6.2-.944-3.29.485-6.051 3.077-6.985 6.23-.367 1.807-.362 3.664-.393 5.496.01 17.482-.01 34.964.016 52.445-3.082.107-6.164.133-9.241-.046-.169-9.118-.031-18.237-.067-27.355a19.248 19.248 0 0 0-1.357-6.986c-2.24-6.097-8.128-10.807-14.63-11.41-2.918-.076-5.985-.336-8.715.924C88.757 85 84.027 90.428 83.047 96.71c-.536 3.893-.194 7.838-.286 11.752-.117 6.424.245 12.858-.158 19.277-3.03.062-6.067.102-9.093-.086-.097-17.962-.005-35.928-.05-53.895-.026-2.29-.353-4.704-1.751-6.597-1.858-2.827-5.409-4.19-8.705-3.639l-1.597.266c-.036.01-.108.04-.143.05-1.205.552-2.322 1.261-3.404 2.011-.025.026-.081.077-.107.102-.755 1.082-1.45 2.21-2.005 3.409a1.5 1.5 0 0 1-.051.138c-.067.26-.194.785-.26 1.046-.684 2.73-.363 5.551-.404 8.332-.025 16.283.046 32.565-.035 48.853-3.047.123-6.098.112-9.15-.015-.173-13.915-.02-27.83-.091-41.745.046-4.046-.031-8.093.04-12.134.123-3.69.47-7.557 2.603-10.7 2.337-4.307 6.669-7.22 11.297-8.578 2.47-.485 5.006-.357 7.506-.23 1.337-.025 2.648.235 3.817.909.133.06.393.183.52.24 5.67 2.581 10.17 7.934 10.91 14.215.704 3.016-.026 6.129.592 9.144 2.276-1.505 4.567-3.015 7.052-4.153 1.974-.939 4.153-1.276 6.23-1.898.01-6.945-.03-13.895-.061-20.84-3.628 0-7.251.041-10.88.016-.52-3.082-.285-6.21-.316-9.318h11.221c.005-3.23-.005-6.454.01-9.684z" style="opacity:1;fill:#00a3e4;stroke-width:.51026559" transform="translate(0 -.667)"/><path style="opacity:1;fill:#273693" d="M134.36 153.54c.07-.02.21-.08.28-.1-.07.02-.21.08-.28.1zm-6.88 4.14c.05-.05.16-.15.21-.2-.05.05-.16.15-.21.2zm-4.03 6.95zm81.57 43.4c6.01-2.58 13.4-1.75 18.56 2.32 4.52 3.35 6.8 9.11 6.72 14.65-.08 17.83.03 35.66-.08 53.49-11.91.44-23.85.21-35.78.13-.27-17.19-.05-34.38-.15-51.58-.82-7.79 3.39-15.95 10.73-19.01zm-101.01 88.53c24.13.05 48.26-.11 72.38.11.06 6.05.2 12.11-.11 18.15-24.08.06-48.16-.01-72.23.03-.06-6.1-.03-12.19-.04-18.29zm90.41 18.08c-.03-5.98-.17-11.96.1-17.92 11.9.04 23.8-.07 35.69.05.11 5.88.06 11.76.08 17.65-11.94.57-23.91.19-35.87.22zm53.97.04c-.05-5.98-.33-11.99.18-17.96 23.88.07 47.75-.02 71.62.07.02 5.76.26 11.54-.06 17.31-.97 1.12-2.84.37-4.15.63-22.53-.1-45.06 0-67.59-.05z" transform="translate(-7.296 -15.175) scale(.51027)"/></svg>