<?xml version="1.0" encoding="UTF-8" standalone="no"?>
<!-- Created with Inkscape (http://www.inkscape.org/) -->

<svg
   xmlns:dc="http://purl.org/dc/elements/1.1/"
   xmlns:cc="http://creativecommons.org/ns#"
   xmlns:rdf="http://www.w3.org/1999/02/22-rdf-syntax-ns#"
   xmlns:svg="http://www.w3.org/2000/svg"
   xmlns="http://www.w3.org/2000/svg"
   xmlns:xlink="http://www.w3.org/1999/xlink"
   xmlns:sodipodi="http://sodipodi.sourceforge.net/DTD/sodipodi-0.dtd"
   xmlns:inkscape="http://www.inkscape.org/namespaces/inkscape"
   width="800"
   height="300"
   viewBox="0 0 211.66667 79.374999"
   version="1.1"
   id="svg8"
   inkscape:version="0.92.3 (2405546, 2018-03-11)"
   sodipodi:docname="top-en.svg">
  <defs
     id="defs2">
    <linearGradient
       inkscape:collect="always"
       id="linearGradient915">
      <stop
         style="stop-color:#c6e06f;stop-opacity:1"
         offset="0"
         id="stop911" />
      <stop
         style="stop-color:#eede4d;stop-opacity:1"
         offset="1"
         id="stop913" />
    </linearGradient>
    <linearGradient
       inkscape:collect="always"
       xlink:href="#linearGradient915"
       id="linearGradient849"
       x1="107.9122"
       y1="49.325893"
       x2="108.47916"
       y2="3.5907738"
       gradientUnits="userSpaceOnUse"
       gradientTransform="matrix(1,0,0,1.0945193,0.37797621,-0.07145214)" />
    <clipPath
       clipPathUnits="userSpaceOnUse"
       id="clipPath843">
      <rect
         style="fill:#f9fbfa;fill-opacity:1;stroke:none;stroke-width:1.15120327;stroke-opacity:1"
         id="rect845"
         width="208"
         height="112"
         x="-3"
         y="-21.333328" />
    </clipPath>
    <clipPath
       clipPathUnits="userSpaceOnUse"
       id="clipPath1729">
      <rect
         y="30.175577"
         x="4.8414793"
         height="29.915369"
         width="54.846542"
         id="rect1731"
         style="fill:#f9fbfa;fill-opacity:1;stroke:none;stroke-width:0.30551541;stroke-opacity:1" />
    </clipPath>
  </defs>
  <sodipodi:namedview
     id="base"
     pagecolor="#ffffff"
     bordercolor="#666666"
     borderopacity="1.0"
     inkscape:pageopacity="0.0"
     inkscape:pageshadow="2"
     inkscape:zoom="1.4"
     inkscape:cx="426.36665"
     inkscape:cy="79.836779"
     inkscape:document-units="mm"
     inkscape:current-layer="layer3"
     showgrid="false"
     units="px"
     inkscape:pagecheckerboard="true"
     inkscape:window-width="1920"
     inkscape:window-height="1028"
     inkscape:window-x="0"
     inkscape:window-y="0"
     inkscape:window-maximized="1" />
  <metadata
     id="metadata5">
    <rdf:RDF>
      <cc:Work
         rdf:about="">
        <dc:format>image/svg+xml</dc:format>
        <dc:type
           rdf:resource="http://purl.org/dc/dcmitype/StillImage" />
        <dc:title></dc:title>
      </cc:Work>
    </rdf:RDF>
  </metadata>
  <g
     inkscape:groupmode="layer"
     id="layer2"
     inkscape:label="Gradient"
     style="display:inline">
    <rect
       style="opacity:1;vector-effect:none;fill:url(#linearGradient849);fill-opacity:1;stroke:none;stroke-width:0.36907354;stroke-linecap:butt;stroke-linejoin:miter;stroke-miterlimit:4;stroke-dasharray:none;stroke-dashoffset:0;stroke-opacity:1"
       id="rect841"
       width="211.66667"
       height="57.918316"
       x="0"
       y="0.75595224" />
    <rect
       style="opacity:1;vector-effect:none;fill:#79accd;fill-opacity:1;stroke:none;stroke-width:0.20439252;stroke-linecap:butt;stroke-linejoin:miter;stroke-miterlimit:4;stroke-dasharray:none;stroke-dashoffset:0;stroke-opacity:1"
       id="rect917"
       width="211.66667"
       height="2.9104166"
       x="0"
       y="57.150002" />
  </g>
  <g
     inkscape:groupmode="layer"
     id="layer5"
     inkscape:label="Circles"
     style="display:inline">
    <g
       clip-path="none"
       id="g1738"
       transform="matrix(0.77094678,0,0,0.77094678,-0.38975683,13.733496)"
       onclick="alert(&quot;clik&quot;)"
       style="image-rendering:auto">
      <title
         id="title1778">Logo</title>
      <ellipse
         clip-path="none"
         id="ellipse3800"
         cx="100.71046"
         cy="96.560745"
         rx="101.34887"
         ry="95.603104"
         style="display:inline;fill:#79accd;fill-opacity:1;stroke-width:1.21603298"
         transform="matrix(0.26458333,0,0,0.26458333,5.6352294,35.820018)" />
      <ellipse
         style="display:inline;fill:#f9fbfa;fill-opacity:1;stroke-width:0.26657382"
         ry="20.565374"
         rx="22.641155"
         cy="61.368385"
         cx="32.323967"
         id="path3798" />
    </g>
  </g>
  <g
     inkscape:groupmode="layer"
     id="layer4"
     inkscape:label="Bottom Curtain"
     style="display:inline">
    <rect
       style="opacity:1;vector-effect:none;fill:#f9fbfa;fill-opacity:1;stroke:none;stroke-width:0.69963753;stroke-linecap:butt;stroke-linejoin:miter;stroke-miterlimit:4;stroke-dasharray:none;stroke-dashoffset:0;stroke-opacity:1"
       id="rect1744"
       width="211.66667"
       height="29.314585"
       x="0"
       y="60.060417" />
  </g>
  <g
     inkscape:groupmode="layer"
     id="layer3"
     inkscape:label="Logo">
    <path
       d="m 23.597626,48.092992 c 0.622421,-0.0031 1.244842,-0.0021 1.867263,0 0.0072,0.656768 0.01665,1.314578 0.02394,1.972388 0.734833,0.0042 1.470706,0.0062 2.206577,-0.0011 0.08118,0.634912 0.04996,1.277109 0.02602,1.915143 -0.743158,-0.01457 -1.487358,-0.01353 -2.230517,-0.0072 -0.01977,1.412418 0.03019,2.824835 0.0094,4.237252 1.022102,0.183187 1.935959,0.683831 2.788404,1.255251 0.06037,-1.034593 -0.09576,-2.158699 0.456929,-3.093371 0.638032,-1.214658 2.004653,-2.041083 3.384806,-1.947409 0.749403,-0.02914 1.476947,0.239394 2.092083,0.654688 0.987757,0.669259 1.574788,1.837079 1.609136,3.021553 -0.01355,3.227638 -0.0052,6.455281 -0.0062,9.681876 -0.0083,0.548244 0.0035,1.088995 0.0084,1.628913 -0.601883,0.0204 -1.286547,0.0229 -1.895439,0 -0.0229,-3.730362 0,-7.46177 -0.01248,-11.192133 -0.0072,-0.67134 -0.332028,-1.380151 -0.950286,-1.691362 -0.37262,-0.244597 -0.839956,-0.238352 -1.264617,-0.192556 -0.671342,0.09888 -1.234436,0.627626 -1.424908,1.270863 -0.07494,0.368458 -0.0739,0.747323 -0.08014,1.120983 0.0021,3.56591 -0.0021,7.131825 0.0031,10.697736 -0.628665,0.02186 -1.257331,0.02706 -1.884958,-0.0094 -0.03435,-1.859978 -0.0062,-3.719955 -0.01352,-5.579931 -0.0031,-0.487113 -0.0968,-0.973185 -0.276864,-1.424909 -0.456929,-1.243803 -1.658055,-2.204496 -2.984084,-2.327314 -0.59536,-0.01561 -1.220904,-0.06869 -1.777751,0.188391 -1.212577,0.437152 -2.177434,1.544604 -2.377274,2.825878 -0.109289,0.794158 -0.03955,1.598728 -0.05828,2.397047 -0.02394,1.310417 0.04996,2.622914 -0.03226,3.932287 -0.618258,0.01248 -1.237558,0.02082 -1.854774,-0.01771 -0.01977,-3.663751 -10e-4,-7.328543 -0.01041,-10.993334 -0.0052,-0.467337 -0.07181,-0.959653 -0.357007,-1.345804 -0.378866,-0.576625 -1.103289,-0.854529 -1.775671,-0.742118 -0.08118,0.01353 -0.244597,0.04059 -0.325781,0.05413 -0.0072,0.0021 -0.02186,0.0083 -0.02914,0.01041 -0.245638,0.11241 -0.473582,0.257086 -0.69424,0.410089 -0.0052,0.0052 -0.01665,0.01561 -0.02186,0.02082 -0.154045,0.220658 -0.295598,0.450682 -0.40905,0.69528 -0.0021,0.0072 -0.0072,0.02081 -0.01041,0.0281 -0.01353,0.05308 -0.03955,0.160289 -0.05308,0.213372 -0.139474,0.556848 -0.0739,1.132431 -0.08223,1.699688 -0.0052,3.321313 0.0094,6.642628 -0.0072,9.964981 -0.621379,0.02498 -1.243801,0.0229 -1.866222,-0.0031 -0.03539,-2.838367 -0.0042,-5.676731 -0.01874,-8.515097 0.0094,-0.825384 -0.0062,-1.650769 0.0083,-2.475112 0.02498,-0.752526 0.09576,-1.541482 0.530828,-2.182637 0.476703,-0.878468 1.360375,-1.472787 2.304415,-1.749649 0.503767,-0.09888 1.021063,-0.07286 1.531074,-0.04683 0.272698,-0.0052 0.540195,0.04787 0.778545,0.185268 0.02706,0.01249 0.08014,0.03747 0.106166,0.04892 1.15637,0.526663 2.074389,1.618503 2.225312,2.899774 0.143635,0.615135 -0.0052,1.250046 0.120736,1.865182 0.464215,-0.307047 0.931552,-0.615136 1.43844,-0.847242 0.402803,-0.191513 0.84724,-0.260209 1.270863,-0.387192 0.0021,-1.41658 -0.0062,-2.834202 -0.01249,-4.250782 -0.740038,0 -1.479031,0.0083 -2.219069,0.0032 -0.106189,-0.628648 -0.05831,-1.266682 -0.06455,-1.900552 h 2.288801 c 10e-4,-0.658851 -0.001,-1.31666 0.0021,-1.97551 z"
       id="path4920"
       inkscape:connector-curvature="0"
       style="opacity:1;fill:#00a3e4;stroke-width:0.10408381"
       sodipodi:nodetypes="ccccccccccccccccccccccccccccccccccccccccccccccccccccccccccc" />
    <path
       style="opacity:1;fill:#273693;stroke-width:0.10408381"
       inkscape:connector-curvature="0"
       d="m 23.805792,60.063669 c 0.625545,-0.268536 1.394723,-0.182146 1.931796,0.241475 0.470458,0.348681 0.70777,0.948203 0.699442,1.524828 -0.0083,1.855813 0.0031,3.711628 -0.0083,5.567443 -1.239638,0.0458 -2.482398,0.02186 -3.724118,0.01352 -0.0281,-1.789202 -0.0052,-3.578401 -0.01561,-5.368643 -0.08535,-0.810812 0.352844,-1.660137 1.116819,-1.978633 z"
       id="path4929" />
    <path
       style="opacity:1;fill:#273693;stroke-width:0.10408381"
       inkscape:connector-curvature="0"
       d="m 13.292287,69.278208 c 2.511543,0.0052 5.023085,-0.01144 7.533586,0.01144 0.0062,0.629708 0.02081,1.260455 -0.01145,1.889121 -2.506338,0.0062 -5.012676,-0.001 -7.517973,0.0031 -0.0062,-0.634911 -0.0032,-1.268782 -0.0042,-1.903694 z"
       id="path4931" />
    <path
       style="opacity:1;fill:#273693;stroke-width:0.10408381"
       inkscape:connector-curvature="0"
       d="m 22.702504,71.160045 c -0.0032,-0.622422 -0.01769,-1.244843 0.01041,-1.865182 1.238598,0.0042 2.477194,-0.0072 3.714751,0.0052 0.01144,0.612012 0.0062,1.224025 0.0083,1.83708 -1.242761,0.05932 -2.488643,0.01977 -3.733485,0.0229 z"
       id="path4933" />
    <path
       style="opacity:1;fill:#273693;stroke-width:0.10408381"
       inkscape:connector-curvature="0"
       d="m 28.319907,71.164208 c -0.0052,-0.622421 -0.03435,-1.247966 0.01873,-1.869345 2.485521,0.0072 4.970001,-0.0021 7.454482,0.0072 0.0021,0.599522 0.02706,1.201125 -0.0062,1.801688 -0.100961,0.116575 -0.295597,0.03851 -0.431947,0.06558 -2.345008,-0.0104 -4.690017,0 -7.035024,-0.0052 z"
       id="path4935" />
    <g
       aria-label="Church Ministries Institute"
       transform="matrix(0.26458333,0,0,0.26458333,-1.0353703e-6,21.166668)"
       style="font-style:normal;font-weight:normal;font-size:40px;line-height:1.25;font-family:sans-serif;letter-spacing:0px;word-spacing:0px;display:inline;fill:#000000;fill-opacity:1;stroke:none"
       id="flowRoot1450">
      <path
         d="m 229.51203,84.536786 c 4.28,0 6.96,-3.12 7.12,-8.28 0.04,-0.48 -0.2,-0.76 -0.68,-0.76 h -3.64 c -0.4,0 -0.64,0.24 -0.68,0.68 -0.08,2.4 -0.92,3.64 -2.24,3.64 -1.28,0 -2.04,-0.92 -2.04,-2.44 v -14.64 c 0,-1.52 0.76,-2.44 2.04,-2.44 1.2,0 2,1.04 2.08,3.28 0,0.44 0.28,0.68 0.68,0.68 h 3.64 c 0.44,0 0.68,-0.24 0.68,-0.72 -0.16,-4.96 -2.88,-7.96 -6.96,-7.96 -4.32,0 -7.2,3 -7.2,7.52 v 13.92 c 0,4.48 2.88,7.52 7.2,7.52 z"
         style="font-style:normal;font-variant:normal;font-weight:800;font-stretch:normal;font-family:Phenomena;-inkscape-font-specification:'Phenomena Ultra-Bold';text-align:center;text-anchor:middle;fill:#181d43;fill-opacity:1"
         id="path1488"
         inkscape:connector-curvature="0" />
      <path
         d="m 239.64016,84.056786 h 3.28 c 0.48,0 0.72,-0.24 0.72,-0.72 v -13.24 c 0,-1.24 0.72,-2.04 1.84,-2.04 1.16,0 1.84,0.8 1.84,2.04 v 13.24 c 0,0.48 0.28,0.72 0.72,0.72 h 3.32 c 0.48,0 0.72,-0.24 0.72,-0.72 v -12.96 c 0,-4.04 -2.48,-6.8 -6.08,-6.8 -0.84,0 -1.68,0.32 -2.36,0.8 v -7.64 c 0,-0.44 -0.24,-0.68 -0.72,-0.68 h -3.28 c -0.48,0 -0.72,0.24 -0.72,0.68 v 26.6 c 0,0.48 0.24,0.72 0.72,0.72 z"
         style="font-style:normal;font-variant:normal;font-weight:800;font-stretch:normal;font-family:Phenomena;-inkscape-font-specification:'Phenomena Ultra-Bold';text-align:center;text-anchor:middle;fill:#181d43;fill-opacity:1"
         id="path1490"
         inkscape:connector-curvature="0" />
      <path
         d="m 255.72828,64.056786 c -0.44,0 -0.68,0.24 -0.68,0.72 v 13 c 0,4 2.6,6.76 6.52,6.76 3.92,0 6.52,-2.76 6.52,-6.76 v -13 c 0,-0.48 -0.24,-0.72 -0.68,-0.72 h -3.32 c -0.44,0 -0.72,0.24 -0.72,0.72 v 13.24 c 0,1.24 -0.68,2.08 -1.8,2.08 -1.16,0 -1.84,-0.84 -1.84,-2.08 v -13.24 c 0,-0.48 -0.24,-0.72 -0.68,-0.72 z"
         style="font-style:normal;font-variant:normal;font-weight:800;font-stretch:normal;font-family:Phenomena;-inkscape-font-specification:'Phenomena Ultra-Bold';text-align:center;text-anchor:middle;fill:#181d43;fill-opacity:1"
         id="path1492"
         inkscape:connector-curvature="0" />
      <path
         d="m 271.58766,84.056786 h 3.32 c 0.44,0 0.68,-0.24 0.68,-0.72 v -11.96 c 0,-1.8 1.12,-2.92 2.88,-2.92 h 1 c 0.44,0 0.72,-0.24 0.72,-0.68 v -3.04 c 0,-0.48 -0.28,-0.72 -0.72,-0.72 h -1.16 c -4.52,0 -7.4,2.92 -7.4,7.92 v 11.4 c 0,0.48 0.24,0.72 0.68,0.72 z"
         style="font-style:normal;font-variant:normal;font-weight:800;font-stretch:normal;font-family:Phenomena;-inkscape-font-specification:'Phenomena Ultra-Bold';text-align:center;text-anchor:middle;fill:#181d43;fill-opacity:1"
         id="path1494"
         inkscape:connector-curvature="0" />
      <path
         d="m 287.93266,84.536786 c 3.76,0 6.32,-2.52 6.6,-6.48 0.04,-0.52 -0.2,-0.8 -0.68,-0.8 h -3.4 c -0.4,0 -0.64,0.24 -0.68,0.72 -0.16,1.4 -0.84,2.08 -1.88,2.08 -1.16,0 -1.84,-0.8 -1.84,-2.04 v -7.92 c 0,-1.24 0.68,-2.04 1.8,-2.04 1,0 1.64,0.6 1.8,1.88 0.04,0.48 0.28,0.72 0.68,0.72 h 3.4 c 0.44,0 0.72,-0.24 0.68,-0.72 -0.28,-3.88 -2.84,-6.36 -6.56,-6.36 -3.92,0 -6.56,2.76 -6.56,6.76 v 7.4 c 0,4.04 2.68,6.8 6.64,6.8 z"
         style="font-style:normal;font-variant:normal;font-weight:800;font-stretch:normal;font-family:Phenomena;-inkscape-font-specification:'Phenomena Ultra-Bold';text-align:center;text-anchor:middle;fill:#181d43;fill-opacity:1"
         id="path1496"
         inkscape:connector-curvature="0" />
      <path
         d="m 297.53078,84.056786 h 3.28 c 0.48,0 0.72,-0.24 0.72,-0.72 v -13.24 c 0,-1.24 0.72,-2.04 1.84,-2.04 1.16,0 1.84,0.8 1.84,2.04 v 13.24 c 0,0.48 0.28,0.72 0.72,0.72 h 3.32 c 0.48,0 0.72,-0.24 0.72,-0.72 v -12.96 c 0,-4.04 -2.48,-6.8 -6.08,-6.8 -0.84,0 -1.68,0.32 -2.36,0.8 v -7.64 c 0,-0.44 -0.24,-0.68 -0.72,-0.68 h -3.28 c -0.48,0 -0.72,0.24 -0.72,0.68 v 26.6 c 0,0.48 0.24,0.72 0.72,0.72 z"
         style="font-style:normal;font-variant:normal;font-weight:800;font-stretch:normal;font-family:Phenomena;-inkscape-font-specification:'Phenomena Ultra-Bold';text-align:center;text-anchor:middle;fill:#181d43;fill-opacity:1"
         id="path1498"
         inkscape:connector-curvature="0" />
      <path
         d="m 337.17828,55.576786 c -1.84,0 -3.24,0.72 -4.4,1.76 -1.12,-1.04 -2.52,-1.76 -4.4,-1.76 -4.16,0 -6.88,3.04 -6.88,7.64 v 20.12 c 0,0.48 0.24,0.72 0.72,0.72 h 3.52 c 0.48,0 0.72,-0.24 0.72,-0.72 v -20.48 c 0,-1.64 0.68,-2.56 1.92,-2.56 1.2,0 1.96,0.92 1.96,2.56 v 20.48 c 0,0.48 0.24,0.72 0.68,0.72 h 3.52 c 0.48,0 0.72,-0.24 0.72,-0.72 v -20.48 c 0,-1.64 0.72,-2.56 1.92,-2.56 1.28,0 1.96,0.92 1.96,2.56 v 20.48 c 0,0.48 0.24,0.72 0.68,0.72 h 3.56 c 0.44,0 0.72,-0.24 0.72,-0.72 v -20.12 c 0,-4.6 -2.72,-7.64 -6.92,-7.64 z"
         style="font-style:normal;font-variant:normal;font-weight:800;font-stretch:normal;font-family:Phenomena;-inkscape-font-specification:'Phenomena Ultra-Bold';text-align:center;text-anchor:middle;fill:#181d43;fill-opacity:1"
         id="path1500"
         inkscape:connector-curvature="0" />
      <path
         d="m 349.95203,61.656786 c 1.48,0 2.64,-1.24 2.64,-2.64 0,-1.52 -1.16,-2.64 -2.64,-2.64 -1.56,0 -2.64,1.12 -2.64,2.64 0,1.48 1.08,2.64 2.64,2.64 z m -1.64,22.4 h 3.28 c 0.48,0 0.72,-0.24 0.72,-0.72 v -18.6 c 0,-0.44 -0.24,-0.68 -0.72,-0.68 h -3.28 c -0.48,0 -0.72,0.24 -0.72,0.68 v 18.6 c 0,0.48 0.24,0.72 0.72,0.72 z"
         style="font-style:normal;font-variant:normal;font-weight:800;font-stretch:normal;font-family:Phenomena;-inkscape-font-specification:'Phenomena Ultra-Bold';text-align:center;text-anchor:middle;fill:#181d43;fill-opacity:1"
         id="path1502"
         inkscape:connector-curvature="0" />
      <path
         d="m 356.11891,84.056786 h 3.32 c 0.44,0 0.68,-0.24 0.68,-0.72 v -13.24 c 0,-1.24 0.68,-2.08 1.84,-2.08 1.12,0 1.8,0.84 1.8,2.08 v 13.24 c 0,0.48 0.28,0.72 0.72,0.72 h 3.32 c 0.44,0 0.68,-0.24 0.68,-0.72 v -13 c 0,-4 -2.6,-6.76 -6.52,-6.76 -3.92,0 -6.52,2.76 -6.52,6.76 v 13 c 0,0.48 0.24,0.72 0.68,0.72 z"
         style="font-style:normal;font-variant:normal;font-weight:800;font-stretch:normal;font-family:Phenomena;-inkscape-font-specification:'Phenomena Ultra-Bold';text-align:center;text-anchor:middle;fill:#181d43;fill-opacity:1"
         id="path1504"
         inkscape:connector-curvature="0" />
      <path
         d="m 374.09266,61.656786 c 1.48,0 2.64,-1.24 2.64,-2.64 0,-1.52 -1.16,-2.64 -2.64,-2.64 -1.56,0 -2.64,1.12 -2.64,2.64 0,1.48 1.08,2.64 2.64,2.64 z m -1.64,22.4 h 3.28 c 0.48,0 0.72,-0.24 0.72,-0.72 v -18.6 c 0,-0.44 -0.24,-0.68 -0.72,-0.68 h -3.28 c -0.48,0 -0.72,0.24 -0.72,0.68 v 18.6 c 0,0.48 0.24,0.72 0.72,0.72 z"
         style="font-style:normal;font-variant:normal;font-weight:800;font-stretch:normal;font-family:Phenomena;-inkscape-font-specification:'Phenomena Ultra-Bold';text-align:center;text-anchor:middle;fill:#181d43;fill-opacity:1"
         id="path1506"
         inkscape:connector-curvature="0" />
      <path
         d="m 386.09766,84.536786 c 3.92,0 6.56,-2.52 6.56,-6.04 0,-6.56 -8.56,-5.96 -8.56,-8.96 0,-0.88 0.68,-1.52 1.72,-1.52 1.04,0 1.6,0.6 1.76,1.48 0.08,0.4 0.28,0.68 0.72,0.68 h 3.32 c 0.6,0 0.68,-0.4 0.68,-0.72 -0.08,-2.6 -1.88,-5.88 -6.52,-5.88 -3.72,0 -6.4,2.32 -6.4,5.84 0,6.4 8.52,5.8 8.52,8.92 0,0.96 -0.68,1.72 -1.92,1.72 -1.36,0 -1.92,-0.92 -2.08,-2.16 -0.12,-0.48 -0.44,-0.64 -0.76,-0.64 h -3.32 c -0.6,0 -0.68,0.44 -0.68,0.84 0.08,3.2 2.44,6.44 6.96,6.44 z"
         style="font-style:normal;font-variant:normal;font-weight:800;font-stretch:normal;font-family:Phenomena;-inkscape-font-specification:'Phenomena Ultra-Bold';text-align:center;text-anchor:middle;fill:#181d43;fill-opacity:1"
         id="path1508"
         inkscape:connector-curvature="0" />
      <path
         d="m 404.36828,79.776786 h -0.4 c -1.84,0 -2.72,-0.96 -2.72,-2.96 v -8.52 h 2.68 c 0.44,0 0.68,-0.24 0.68,-0.68 v -2.88 c 0,-0.44 -0.24,-0.68 -0.68,-0.68 h -2.68 v -5.16 c 0,-0.44 -0.24,-0.68 -0.68,-0.68 h -3.32 c -0.44,0 -0.68,0.24 -0.68,0.68 v 5.16 h -2 c -0.44,0 -0.68,0.24 -0.68,0.68 v 2.88 c 0,0.44 0.24,0.68 0.68,0.68 h 2 v 8.44 c 0,4.6 2.68,7.48 7.04,7.48 h 0.76 c 0.44,0 0.68,-0.24 0.68,-0.68 v -3.08 c 0,-0.44 -0.24,-0.68 -0.68,-0.68 z"
         style="font-style:normal;font-variant:normal;font-weight:800;font-stretch:normal;font-family:Phenomena;-inkscape-font-specification:'Phenomena Ultra-Bold';text-align:center;text-anchor:middle;fill:#181d43;fill-opacity:1"
         id="path1510"
         inkscape:connector-curvature="0" />
      <path
         d="m 407.99391,84.056786 h 3.32 c 0.44,0 0.68,-0.24 0.68,-0.72 v -11.96 c 0,-1.8 1.12,-2.92 2.88,-2.92 h 1 c 0.44,0 0.72,-0.24 0.72,-0.68 v -3.04 c 0,-0.48 -0.28,-0.72 -0.72,-0.72 h -1.16 c -4.52,0 -7.4,2.92 -7.4,7.92 v 11.4 c 0,0.48 0.24,0.72 0.68,0.72 z"
         style="font-style:normal;font-variant:normal;font-weight:800;font-stretch:normal;font-family:Phenomena;-inkscape-font-specification:'Phenomena Ultra-Bold';text-align:center;text-anchor:middle;fill:#181d43;fill-opacity:1"
         id="path1512"
         inkscape:connector-curvature="0" />
      <path
         d="m 420.96766,61.656786 c 1.48,0 2.64,-1.24 2.64,-2.64 0,-1.52 -1.16,-2.64 -2.64,-2.64 -1.56,0 -2.64,1.12 -2.64,2.64 0,1.48 1.08,2.64 2.64,2.64 z m -1.64,22.4 h 3.28 c 0.48,0 0.72,-0.24 0.72,-0.72 v -18.6 c 0,-0.44 -0.24,-0.68 -0.72,-0.68 h -3.28 c -0.48,0 -0.72,0.24 -0.72,0.68 v 18.6 c 0,0.48 0.24,0.72 0.72,0.72 z"
         style="font-style:normal;font-variant:normal;font-weight:800;font-stretch:normal;font-family:Phenomena;-inkscape-font-specification:'Phenomena Ultra-Bold';text-align:center;text-anchor:middle;fill:#181d43;fill-opacity:1"
         id="path1514"
         inkscape:connector-curvature="0" />
      <path
         d="m 432.18766,84.496786 c 3.72,0 6.32,-2.44 6.6,-6.08 0,-0.48 -0.24,-0.72 -0.68,-0.72 h -3.36 c -0.4,0 -0.64,0.2 -0.72,0.68 -0.16,1.04 -0.8,1.68 -1.8,1.68 -1.16,0 -1.8,-0.8 -1.8,-2.04 v -1.68 h 1.96 c 3.92,0 6.56,-2.52 6.56,-6.2 0,-3.92 -2.8,-6.6 -6.64,-6.52 -3.96,0 -6.56,2.64 -6.64,6.56 v 7.56 c 0,4.08 2.64,6.76 6.52,6.76 z m -1.76,-12.32 v -2.08 c 0,-1.24 0.64,-2.04 1.88,-2.04 1.2,0 1.92,0.76 1.92,2.2 0,1.2 -0.68,1.92 -1.84,1.92 z"
         style="font-style:normal;font-variant:normal;font-weight:800;font-stretch:normal;font-family:Phenomena;-inkscape-font-specification:'Phenomena Ultra-Bold';text-align:center;text-anchor:middle;fill:#181d43;fill-opacity:1"
         id="path1516"
         inkscape:connector-curvature="0" />
      <path
         d="m 447.97266,84.536786 c 3.92,0 6.56,-2.52 6.56,-6.04 0,-6.56 -8.56,-5.96 -8.56,-8.96 0,-0.88 0.68,-1.52 1.72,-1.52 1.04,0 1.6,0.6 1.76,1.48 0.08,0.4 0.28,0.68 0.72,0.68 h 3.32 c 0.6,0 0.68,-0.4 0.68,-0.72 -0.08,-2.6 -1.88,-5.88 -6.52,-5.88 -3.72,0 -6.4,2.32 -6.4,5.84 0,6.4 8.52,5.8 8.52,8.92 0,0.96 -0.68,1.72 -1.92,1.72 -1.36,0 -1.92,-0.92 -2.08,-2.16 -0.12,-0.48 -0.44,-0.64 -0.76,-0.64 h -3.32 c -0.6,0 -0.68,0.44 -0.68,0.84 0.08,3.2 2.44,6.44 6.96,6.44 z"
         style="font-style:normal;font-variant:normal;font-weight:800;font-stretch:normal;font-family:Phenomena;-inkscape-font-specification:'Phenomena Ultra-Bold';text-align:center;text-anchor:middle;fill:#181d43;fill-opacity:1"
         id="path1518"
         inkscape:connector-curvature="0" />
      <path
         d="m 465.83891,56.736786 v 26.6 c 0,0.48 0.24,0.72 0.72,0.72 h 3.56 c 0.44,0 0.72,-0.24 0.72,-0.72 v -26.6 c 0,-0.44 -0.28,-0.68 -0.72,-0.68 h -3.56 c -0.48,0 -0.72,0.24 -0.72,0.68 z"
         style="font-style:normal;font-variant:normal;font-weight:800;font-stretch:normal;font-family:Phenomena;-inkscape-font-specification:'Phenomena Ultra-Bold';text-align:center;text-anchor:middle;fill:#181d43;fill-opacity:1"
         id="path1520"
         inkscape:connector-curvature="0" />
      <path
         d="m 475.02516,84.056786 h 3.32 c 0.44,0 0.68,-0.24 0.68,-0.72 v -13.24 c 0,-1.24 0.68,-2.08 1.84,-2.08 1.12,0 1.8,0.84 1.8,2.08 v 13.24 c 0,0.48 0.28,0.72 0.72,0.72 h 3.32 c 0.44,0 0.68,-0.24 0.68,-0.72 v -13 c 0,-4 -2.6,-6.76 -6.52,-6.76 -3.92,0 -6.52,2.76 -6.52,6.76 v 13 c 0,0.48 0.24,0.72 0.68,0.72 z"
         style="font-style:normal;font-variant:normal;font-weight:800;font-stretch:normal;font-family:Phenomena;-inkscape-font-specification:'Phenomena Ultra-Bold';text-align:center;text-anchor:middle;fill:#181d43;fill-opacity:1"
         id="path1522"
         inkscape:connector-curvature="0" />
      <path
         d="m 496.95703,84.536786 c 3.92,0 6.56,-2.52 6.56,-6.04 0,-6.56 -8.56,-5.96 -8.56,-8.96 0,-0.88 0.68,-1.52 1.72,-1.52 1.04,0 1.6,0.6 1.76,1.48 0.08,0.4 0.28,0.68 0.72,0.68 h 3.32 c 0.6,0 0.68,-0.4 0.68,-0.72 -0.08,-2.6 -1.88,-5.88 -6.52,-5.88 -3.72,0 -6.4,2.32 -6.4,5.84 0,6.4 8.52,5.8 8.52,8.92 0,0.96 -0.68,1.72 -1.92,1.72 -1.36,0 -1.92,-0.92 -2.08,-2.16 -0.12,-0.48 -0.44,-0.64 -0.76,-0.64 h -3.32 c -0.6,0 -0.68,0.44 -0.68,0.84 0.08,3.2 2.44,6.44 6.96,6.44 z"
         style="font-style:normal;font-variant:normal;font-weight:800;font-stretch:normal;font-family:Phenomena;-inkscape-font-specification:'Phenomena Ultra-Bold';text-align:center;text-anchor:middle;fill:#181d43;fill-opacity:1"
         id="path1524"
         inkscape:connector-curvature="0" />
      <path
         d="m 515.22766,79.776786 h -0.4 c -1.84,0 -2.72,-0.96 -2.72,-2.96 v -8.52 h 2.68 c 0.44,0 0.68,-0.24 0.68,-0.68 v -2.88 c 0,-0.44 -0.24,-0.68 -0.68,-0.68 h -2.68 v -5.16 c 0,-0.44 -0.24,-0.68 -0.68,-0.68 h -3.32 c -0.44,0 -0.68,0.24 -0.68,0.68 v 5.16 h -2 c -0.44,0 -0.68,0.24 -0.68,0.68 v 2.88 c 0,0.44 0.24,0.68 0.68,0.68 h 2 v 8.44 c 0,4.6 2.68,7.48 7.04,7.48 h 0.76 c 0.44,0 0.68,-0.24 0.68,-0.68 v -3.08 c 0,-0.44 -0.24,-0.68 -0.68,-0.68 z"
         style="font-style:normal;font-variant:normal;font-weight:800;font-stretch:normal;font-family:Phenomena;-inkscape-font-specification:'Phenomena Ultra-Bold';text-align:center;text-anchor:middle;fill:#181d43;fill-opacity:1"
         id="path1526"
         inkscape:connector-curvature="0" />
      <path
         d="m 520.73328,61.656786 c 1.48,0 2.64,-1.24 2.64,-2.64 0,-1.52 -1.16,-2.64 -2.64,-2.64 -1.56,0 -2.64,1.12 -2.64,2.64 0,1.48 1.08,2.64 2.64,2.64 z m -1.64,22.4 h 3.28 c 0.48,0 0.72,-0.24 0.72,-0.72 v -18.6 c 0,-0.44 -0.24,-0.68 -0.72,-0.68 h -3.28 c -0.48,0 -0.72,0.24 -0.72,0.68 v 18.6 c 0,0.48 0.24,0.72 0.72,0.72 z"
         style="font-style:normal;font-variant:normal;font-weight:800;font-stretch:normal;font-family:Phenomena;-inkscape-font-specification:'Phenomena Ultra-Bold';text-align:center;text-anchor:middle;fill:#181d43;fill-opacity:1"
         id="path1528"
         inkscape:connector-curvature="0" />
      <path
         d="m 535.69641,79.776786 h -0.4 c -1.84,0 -2.72,-0.96 -2.72,-2.96 v -8.52 h 2.68 c 0.44,0 0.68,-0.24 0.68,-0.68 v -2.88 c 0,-0.44 -0.24,-0.68 -0.68,-0.68 h -2.68 v -5.16 c 0,-0.44 -0.24,-0.68 -0.68,-0.68 h -3.32 c -0.44,0 -0.68,0.24 -0.68,0.68 v 5.16 h -2 c -0.44,0 -0.68,0.24 -0.68,0.68 v 2.88 c 0,0.44 0.24,0.68 0.68,0.68 h 2 v 8.44 c 0,4.6 2.68,7.48 7.04,7.48 h 0.76 c 0.44,0 0.68,-0.24 0.68,-0.68 v -3.08 c 0,-0.44 -0.24,-0.68 -0.68,-0.68 z"
         style="font-style:normal;font-variant:normal;font-weight:800;font-stretch:normal;font-family:Phenomena;-inkscape-font-specification:'Phenomena Ultra-Bold';text-align:center;text-anchor:middle;fill:#181d43;fill-opacity:1"
         id="path1530"
         inkscape:connector-curvature="0" />
      <path
         d="m 539.24391,64.056786 c -0.44,0 -0.68,0.24 -0.68,0.72 v 13 c 0,4 2.6,6.76 6.52,6.76 3.92,0 6.52,-2.76 6.52,-6.76 v -13 c 0,-0.48 -0.24,-0.72 -0.68,-0.72 h -3.32 c -0.44,0 -0.72,0.24 -0.72,0.72 v 13.24 c 0,1.24 -0.68,2.08 -1.8,2.08 -1.16,0 -1.84,-0.84 -1.84,-2.08 v -13.24 c 0,-0.48 -0.24,-0.72 -0.68,-0.72 z"
         style="font-style:normal;font-variant:normal;font-weight:800;font-stretch:normal;font-family:Phenomena;-inkscape-font-specification:'Phenomena Ultra-Bold';text-align:center;text-anchor:middle;fill:#181d43;fill-opacity:1"
         id="path1532"
         inkscape:connector-curvature="0" />
      <path
         d="m 564.05578,79.776786 h -0.4 c -1.84,0 -2.72,-0.96 -2.72,-2.96 v -8.52 h 2.68 c 0.44,0 0.68,-0.24 0.68,-0.68 v -2.88 c 0,-0.44 -0.24,-0.68 -0.68,-0.68 h -2.68 v -5.16 c 0,-0.44 -0.24,-0.68 -0.68,-0.68 h -3.32 c -0.44,0 -0.68,0.24 -0.68,0.68 v 5.16 h -2 c -0.44,0 -0.68,0.24 -0.68,0.68 v 2.88 c 0,0.44 0.24,0.68 0.68,0.68 h 2 v 8.44 c 0,4.6 2.68,7.48 7.04,7.48 h 0.76 c 0.44,0 0.68,-0.24 0.68,-0.68 v -3.08 c 0,-0.44 -0.24,-0.68 -0.68,-0.68 z"
         style="font-style:normal;font-variant:normal;font-weight:800;font-stretch:normal;font-family:Phenomena;-inkscape-font-specification:'Phenomena Ultra-Bold';text-align:center;text-anchor:middle;fill:#181d43;fill-opacity:1"
         id="path1534"
         inkscape:connector-curvature="0" />
      <path
         d="m 572.81266,84.496786 c 3.72,0 6.32,-2.44 6.6,-6.08 0,-0.48 -0.24,-0.72 -0.68,-0.72 h -3.36 c -0.4,0 -0.64,0.2 -0.72,0.68 -0.16,1.04 -0.8,1.68 -1.8,1.68 -1.16,0 -1.8,-0.8 -1.8,-2.04 v -1.68 h 1.96 c 3.92,0 6.56,-2.52 6.56,-6.2 0,-3.92 -2.8,-6.6 -6.64,-6.52 -3.96,0 -6.56,2.64 -6.64,6.56 v 7.56 c 0,4.08 2.64,6.76 6.52,6.76 z m -1.76,-12.32 v -2.08 c 0,-1.24 0.64,-2.04 1.88,-2.04 1.2,0 1.92,0.76 1.92,2.2 0,1.2 -0.68,1.92 -1.84,1.92 z"
         style="font-style:normal;font-variant:normal;font-weight:800;font-stretch:normal;font-family:Phenomena;-inkscape-font-specification:'Phenomena Ultra-Bold';text-align:center;text-anchor:middle;fill:#181d43;fill-opacity:1"
         id="path1536"
         inkscape:connector-curvature="0" />
    </g>
  </g>
</svg>
