<svg xmlns="http://www.w3.org/2000/svg" xmlns:xlink="http://www.w3.org/1999/xlink" width="800" height="300" viewBox="0 0 211.667 79.375"><defs><linearGradient id="a"><stop style="stop-color:#c6e06f;stop-opacity:1" offset="0"/><stop style="stop-color:#eede4d;stop-opacity:1" offset="1"/></linearGradient><linearGradient xlink:href="#a" id="b" x1="107.912" y1="49.326" x2="108.479" y2="3.591" gradientUnits="userSpaceOnUse" gradientTransform="matrix(1 0 0 1.09452 .378 -.071)"/></defs><path style="opacity:1;vector-effect:none;fill:url(#b);fill-opacity:1;stroke:none;stroke-width:.36907354;stroke-linecap:butt;stroke-linejoin:miter;stroke-miterlimit:4;stroke-dasharray:none;stroke-dashoffset:0;stroke-opacity:1" d="M0 .756h211.667v57.918H0z"/><path style="opacity:1;vector-effect:none;fill:#79accd;fill-opacity:1;stroke:none;stroke-width:.20439252;stroke-linecap:butt;stroke-linejoin:miter;stroke-miterlimit:4;stroke-dasharray:none;stroke-dashoffset:0;stroke-opacity:1" d="M0 57.15h211.667v2.91H0z"/><g style="display:inline"><g transform="translate(-.39 13.733) scale(.77095)" onclick="alert(&quot;clik&quot;)" style="image-rendering:auto"><ellipse cx="100.71" cy="96.561" rx="101.349" ry="95.603" style="display:inline;fill:#79accd;fill-opacity:1;stroke-width:1.21603298" transform="translate(5.635 35.82) scale(.26458)"/><ellipse style="display:inline;fill:#f9fbfa;fill-opacity:1;stroke-width:.26657382" ry="20.565" rx="22.641" cy="61.368" cx="32.324"/></g></g><g style="display:inline"><path style="opacity:1;vector-effect:none;fill:#f9fbfa;fill-opacity:1;stroke:none;stroke-width:.69963753;stroke-linecap:butt;stroke-linejoin:miter;stroke-miterlimit:4;stroke-dasharray:none;stroke-dashoffset:0;stroke-opacity:1" d="M0 60.06h211.667v29.315H0z"/><g style="font-style:normal;font-weight:400;font-size:40px;line-height:1.25;font-family:sans-serif;letter-spacing:0;word-spacing:0;fill:#000;fill-opacity:1;stroke:none"><path d="M194.683 56.737v22.88h-1.76c-1.48 0-2.4-1.28-2.4-3.12v-19.76c0-.44-.24-.68-.68-.68h-3.64c-.48 0-.72.24-.72.68v19.6c0 4.48 2.36 7.88 7.32 7.88h4.76c1.36 0 2.12-.72 2.12-2.08v-25.4c0-.44-.28-.68-.72-.68h-3.56c-.48 0-.72.24-.72.68zm16.732 8v6.96h-3.44v-6.96c0-.44-.24-.68-.68-.68h-3.28c-.48 0-.72.24-.72.68v18.6c0 .48.24.72.72.72h3.28c.44 0 .68-.24.68-.72v-7.24h3.44v7.24c0 .48.24.72.72.72h3.28c.44 0 .68-.24.68-.72v-18.6c0-.44-.24-.68-.68-.68h-3.28c-.48 0-.72.24-.72.68zm14.33 19.8c3.76 0 6.32-2.52 6.6-6.48.04-.52-.2-.8-.68-.8h-3.4c-.4 0-.64.24-.68.72-.16 1.4-.84 2.08-1.88 2.08-1.16 0-1.84-.8-1.84-2.04v-7.92c0-1.24.68-2.04 1.8-2.04 1 0 1.64.6 1.8 1.88.04.48.28.72.68.72h3.4c.44 0 .72-.24.68-.72-.28-3.88-2.84-6.36-6.56-6.36-3.92 0-6.56 2.76-6.56 6.76v7.4c0 4.04 2.68 6.8 6.64 6.8zm12.32-.48h3.32c.44 0 .68-.24.68-.72v-14.88h3.48c.44 0 .68-.24.68-.68v-3.04c0-.44-.24-.68-.68-.68h-11.64c-.44 0-.72.24-.72.68v3.04c0 .44.28.68.72.68h3.44v14.88c0 .48.28.72.72.72zm16.786.04h4.08c1.44 0 2.24-.8 2.24-2.28v-17.08c0-.48-.24-.72-.68-.72h-3.32c-.44 0-.72.24-.72.72v14.88h-1.6c-1.16 0-1.92-.76-1.92-1.96v-12.92c0-.48-.24-.72-.68-.72h-3.32c-.44 0-.68.24-.68.72v12.64c0 4 2.68 6.72 6.6 6.72zm13.37-.04h3.32c.44 0 .68-.24.68-.72v-14.88h3.48c.44 0 .68-.24.68-.68v-3.04c0-.44-.24-.68-.68-.68h-11.64c-.44 0-.72.24-.72.68v3.04c0 .44.28.68.72.68h3.44v14.88c0 .48.28.72.72.72zm22.587-20h-3.32c-.44 0-.68.24-.68.68v12.12c0 1.24-.68 2.04-1.84 2.04-1.16 0-1.88-.8-1.88-2.04v-12.12c0-.44-.24-.68-.68-.68h-3.32c-.44 0-.68.24-.68.68v11.84c0 4.04 2.56 6.76 5.96 6.76 1 0 1.84-.36 2.44-.92v3.6c0 1.28-.68 2.04-1.84 2.04-1.04 0-1.68-.76-1.8-2.16-.08-.48-.32-.72-.72-.72h-3.36c-.44 0-.68.24-.68.72.28 4.12 2.72 6.64 6.56 6.64 4.08 0 6.56-2.56 6.56-6.76v-21.04c0-.44-.28-.68-.72-.68zm7.726 20h3.32c.44 0 .68-.24.68-.72v-14.88h3.48c.44 0 .68-.24.68-.68v-3.04c0-.44-.24-.68-.68-.68h-11.64c-.44 0-.72.24-.72.68v3.04c0 .44.28.68.72.68h3.44v14.88c0 .48.28.72.72.72zm31.187 4.56h3.36c.48 0 .72-.24.72-.68v-6.16c0-1.52-.8-2.32-2.32-2.32l-.08-.04v-22.68c0-.44-.24-.68-.68-.68h-3.6c-.48 0-.72.24-.72.68v22.72h-1.76c-1.48 0-2.4-1.28-2.4-3.16v-19.56c0-.44-.24-.68-.68-.68h-3.64c-.48 0-.72.24-.72.68v19.4c0 4.56 2.32 7.96 7.32 7.96h4.48v3.84c0 .44.28.68.72.68zm12.31-4.12c3.72 0 6.32-2.44 6.6-6.08 0-.48-.24-.72-.68-.72h-3.36c-.4 0-.64.2-.72.68-.16 1.04-.8 1.68-1.8 1.68-1.16 0-1.8-.8-1.8-2.04v-1.68h1.96c3.92 0 6.56-2.52 6.56-6.2 0-3.92-2.8-6.6-6.64-6.52-3.96 0-6.56 2.64-6.64 6.56v7.56c0 4.08 2.64 6.76 6.52 6.76zm-1.76-12.32v-2.08c0-1.24.64-2.04 1.88-2.04 1.2 0 1.92.76 1.92 2.2 0 1.2-.68 1.92-1.84 1.92zm17.667-8.6c-3.96 0-6.64 2.76-6.64 6.76v21.04c0 .44.24.68.68.68h3.36c.44 0 .68-.24.68-.68v-7.64c.8.52 1.72.8 2.72.8 3.2 0 5.88-2.76 5.88-6.8v-7.4c0-4-2.68-6.76-6.68-6.76zm1.92 14.44c0 1.24-.72 2.04-1.92 2.04s-1.92-.8-1.92-2.04v-7.92c0-1.24.72-2.04 1.92-2.04s1.92.8 1.92 2.04zm18.012-5.28 3.2-7.88c.2-.48-.08-.8-.6-.8h-3.4c-.4 0-.68.16-.8.56l-2.72 7h-1.16v-6.88c0-.48-.24-.72-.72-.72h-3.28c-.48 0-.72.24-.72.72v18.6c0 .48.24.72.72.72h3.28c.48 0 .72-.24.72-.72v-7.28h1.64c1.16 0 1.88.76 1.88 1.96v5.32c0 .48.24.72.68.72h3.36c.44 0 .68-.24.68-.72v-5.04c0-2.52-1.04-4.48-2.76-5.56zm11.743 11.8c4 0 6.68-2.76 6.68-6.8v-7.4c0-4-2.68-6.76-6.68-6.76-4 0-6.68 2.76-6.68 6.76v7.4c0 4.04 2.68 6.8 6.68 6.8zm0-4.48c-1.2 0-1.92-.8-1.92-2.04v-7.92c0-1.24.72-2.08 1.92-2.08s1.92.84 1.92 2.08v7.92c0 1.24-.72 2.04-1.92 2.04zm20.216-6.72c1.16-.76 1.92-2.28 1.92-3.92 0-3.48-2.48-5.84-6.28-5.84-3.8 0-6.28 2.72-6.28 6.68v11.72c0 1.44.76 2.24 2.24 2.24h5.44c3.36 0 5.64-2.36 5.64-5.84 0-2.32-1.08-4.32-2.68-5.04zm-5.96-3.72c0-1.16.6-1.88 1.64-1.88 1.16 0 1.76.68 1.76 1.92 0 1.36-.64 2.12-1.84 2.12h-1.56zm1.96 10.2h-1.96v-4.08h1.96c1.24 0 2 .76 2 2.08 0 1.28-.76 2-2 2zm17.071-15.08v6.96h-3.44v-6.96c0-.44-.24-.68-.68-.68h-3.28c-.48 0-.72.24-.72.68v18.6c0 .48.24.72.72.72h3.28c.44 0 .68-.24.68-.72v-7.24h3.44v7.24c0 .48.24.72.72.72h3.28c.44 0 .68-.24.68-.72v-18.6c0-.44-.24-.68-.68-.68h-3.28c-.48 0-.72.24-.72.68zm14.37 19.8c4 0 6.68-2.76 6.68-6.8v-7.4c0-4-2.68-6.76-6.68-6.76-4 0-6.68 2.76-6.68 6.76v7.4c0 4.04 2.68 6.8 6.68 6.8zm0-4.48c-1.2 0-1.92-.8-1.92-2.04v-7.92c0-1.24.72-2.08 1.92-2.08s1.92.84 1.92 2.08v7.92c0 1.24-.72 2.04-1.92 2.04zm10.255 4h3.32c.44 0 .68-.24.68-.72v-12.28c0-1.76.84-2.64 2.56-2.64h1.68c.48 0 .72-.24.72-.68v-3.08c0-.44-.24-.68-.72-.68h-1.84c-4.64 0-7.08 2.64-7.08 7.64v11.72c0 .48.24.72.68.72zm17.088.48c4 0 6.68-2.76 6.68-6.8v-7.4c0-4-2.68-6.76-6.68-6.76-4 0-6.68 2.76-6.68 6.76v7.4c0 4.04 2.68 6.8 6.68 6.8zm0-4.48c-1.2 0-1.92-.8-1.92-2.04v-7.92c0-1.24.72-2.08 1.92-2.08s1.92.84 1.92 2.08v7.92c0 1.24-.72 2.04-1.92 2.04zm24.977 4.48c4.28 0 6.96-3.12 7.12-8.28.04-.48-.2-.76-.68-.76h-3.64c-.4 0-.64.24-.68.68-.08 2.4-.92 3.64-2.24 3.64-1.28 0-2.04-.92-2.04-2.44v-14.64c0-1.52.76-2.44 2.04-2.44 1.2 0 2 1.04 2.08 3.28 0 .44.28.68.68.68h3.64c.44 0 .68-.24.68-.72-.16-4.96-2.88-7.96-6.96-7.96-4.32 0-7.2 3-7.2 7.52v13.92c0 4.48 2.88 7.52 7.2 7.52zm8.925-.32c3.88-.04 6.2-2.72 6.2-6.72v-7.2c0-1.2.76-1.96 1.92-1.96h1.4v15c0 .44.28.72.68.72h3.28c.4 0 .68-.28.68-.72v-17.2c0-1.44-.8-2.24-2.24-2.24h-3.8c-3.92 0-6.56 2.68-6.56 6.68v7.12c0 1.24-.6 2-1.56 2.04-.44 0-.72.28-.72.72v3.04c0 .44.28.72.72.72zm29.871-20.16h-3.32c-.44 0-.68.24-.68.68v12.12c0 1.24-.68 2.04-1.84 2.04-1.16 0-1.88-.8-1.88-2.04v-12.12c0-.44-.24-.68-.68-.68h-3.32c-.44 0-.68.24-.68.68v11.84c0 4.04 2.56 6.76 5.96 6.76 1 0 1.84-.36 2.44-.92v3.6c0 1.28-.68 2.04-1.84 2.04-1.04 0-1.68-.76-1.8-2.16-.08-.48-.32-.72-.72-.72h-3.36c-.44 0-.68.24-.68.72.28 4.12 2.72 6.64 6.56 6.64 4.08 0 6.56-2.56 6.56-6.76v-21.04c0-.44-.28-.68-.72-.68zm4.446 20h3.28c.44 0 .68-.24.68-.72v-5.32c0-1.2.76-1.96 1.92-1.96h1.48v7.28c0 .48.24.72.68.72h3.2c.44 0 .72-.24.72-.72v-7.28h1.48c1.16 0 1.88.76 1.88 1.96v5.32c0 .48.28.72.72.72h3.24c.44 0 .72-.24.72-.72v-5.04c0-2.6-1.08-4.48-2.8-5.56l3.12-7.88c.2-.48-.08-.8-.56-.8h-3.44c-.36 0-.68.16-.8.56l-2.64 7h-.92v-6.88c0-.48-.28-.72-.72-.72h-3.2c-.44 0-.68.24-.68.72v6.88h-.96l-2.6-7c-.16-.4-.44-.56-.84-.56h-3.4c-.48 0-.8.32-.6.8l3.16 7.88c-1.72 1.08-2.8 2.96-2.8 5.56v5.04c0 .48.24.72.68.72zm28.731.44c3.72 0 6.32-2.44 6.6-6.08 0-.48-.24-.72-.68-.72h-3.36c-.4 0-.64.2-.72.68-.16 1.04-.8 1.68-1.8 1.68-1.16 0-1.8-.8-1.8-2.04v-1.68h1.96c3.92 0 6.56-2.52 6.56-6.2 0-3.92-2.8-6.6-6.64-6.52-3.96 0-6.56 2.64-6.64 6.56v7.56c0 4.08 2.64 6.76 6.52 6.76zm-1.76-12.32v-2.08c0-1.24.64-2.04 1.88-2.04 1.2 0 1.92.76 1.92 2.2 0 1.2-.68 1.92-1.84 1.92zm19.425-7.44v6.96h-3.44v-6.96c0-.44-.24-.68-.68-.68h-3.28c-.48 0-.72.24-.72.68v18.6c0 .48.24.72.72.72h3.28c.44 0 .68-.24.68-.72v-7.24h3.44v7.24c0 .48.24.72.72.72h3.28c.44 0 .68-.24.68-.72v-18.6c0-.44-.24-.68-.68-.68h-3.28c-.48 0-.72.24-.72.68zm14.608 19.36h4.08c1.44 0 2.24-.8 2.24-2.28v-17.08c0-.48-.24-.72-.68-.72h-3.32c-.44 0-.72.24-.72.72v14.88h-1.6c-1.16 0-1.92-.76-1.92-1.96v-12.92c0-.48-.24-.72-.68-.72h-3.32c-.44 0-.68.24-.68.72v12.64c0 4 2.68 6.72 6.6 6.72zm15.861-20.52c-3.8 0-6.72 2.64-6.72 6.76 0 2.52 1.08 4.56 2.96 5.64l-3.6 7.24c-.28.48 0 .84.52.84h3.4c.4 0 .72-.16.92-.68l2.76-6.28h1.6v6.24c0 .48.24.72.68.72h3.24c.48 0 .72-.24.72-.72v-13.24c0-3.92-2.68-6.52-6.48-6.52zm1.84 9.2h-1.76c-1.32 0-2.08-.88-2.08-2.4s.76-2.32 2-2.32c1.16 0 1.84.76 1.84 2.2z" style="font-style:normal;font-variant:normal;font-weight:800;font-stretch:normal;font-family:Phenomena;-inkscape-font-specification:'Phenomena Ultra-Bold';text-align:center;text-anchor:middle;fill:#181d43;fill-opacity:1" transform="translate(0 21.167) scale(.26458)" aria-label="Институт Церковного Служения"/></g></g><path d="M23.598 48.093a232.38 232.38 0 0 1 1.867 0l.024 1.972c.735.005 1.47.007 2.206 0 .082.634.05 1.276.026 1.914a79.355 79.355 0 0 0-2.23-.007c-.02 1.413.03 2.825.01 4.237 1.021.184 1.935.684 2.788 1.256.06-1.035-.096-2.159.457-3.094.638-1.214 2.004-2.04 3.384-1.947.75-.03 1.477.24 2.093.655.987.669 1.574 1.837 1.609 3.021-.014 3.228-.006 6.455-.007 9.682-.008.548.004 1.09.009 1.629-.602.02-1.287.023-1.896 0-.022-3.73 0-7.462-.012-11.192-.007-.671-.332-1.38-.95-1.692-.373-.244-.84-.238-1.265-.192-.671.099-1.234.628-1.425 1.27-.075.37-.074.748-.08 1.122.002 3.566-.002 7.132.003 10.698a20.43 20.43 0 0 1-1.885-.01c-.034-1.86-.006-3.72-.013-5.58a3.926 3.926 0 0 0-.277-1.425c-.457-1.244-1.658-2.204-2.984-2.327-.596-.016-1.221-.069-1.778.188-1.213.437-2.178 1.545-2.377 2.826-.11.794-.04 1.599-.059 2.397-.024 1.31.05 2.623-.032 3.933-.618.012-1.237.02-1.855-.018-.02-3.664 0-7.329-.01-10.993-.005-.468-.072-.96-.357-1.346-.379-.577-1.103-.855-1.776-.742l-.326.054-.029.01a4.556 4.556 0 0 0-.694.41l-.022.021c-.154.22-.295.45-.409.695a.297.297 0 0 1-.01.028l-.053.214c-.14.557-.074 1.132-.083 1.7-.005 3.32.01 6.642-.007 9.964-.621.025-1.244.023-1.866-.003-.035-2.838-.004-5.676-.019-8.515.01-.825-.006-1.65.009-2.475.025-.752.095-1.541.53-2.182.477-.879 1.36-1.473 2.305-1.75.504-.099 1.02-.073 1.53-.047.274-.005.541.048.78.185l.106.05c1.156.526 2.074 1.618 2.225 2.899.144.615-.005 1.25.12 1.865.465-.307.932-.615 1.44-.847.402-.192.846-.26 1.27-.387.002-1.417-.006-2.834-.013-4.251-.74 0-1.479.008-2.219.003-.106-.628-.058-1.267-.064-1.9h2.289c0-.66-.001-1.317.002-1.976z" style="opacity:1;fill:#00a3e4;stroke-width:.10408381"/><path style="opacity:1;fill:#273693;stroke-width:.10408381" d="M23.806 60.064c.625-.269 1.395-.182 1.932.241.47.349.707.948.699 1.525-.008 1.856.003 3.712-.008 5.567-1.24.046-2.483.022-3.724.014-.028-1.79-.006-3.578-.016-5.369-.085-.81.353-1.66 1.117-1.978zm-10.514 9.214c2.512.005 5.023-.011 7.534.012.006.63.02 1.26-.012 1.889-2.506.006-5.012-.001-7.518.003-.006-.635-.003-1.269-.004-1.904zm9.411 1.882c-.004-.622-.018-1.245.01-1.865 1.239.004 2.477-.007 3.715.005.011.612.006 1.224.008 1.837-1.243.06-2.489.02-3.734.023zm5.617.004c-.005-.622-.034-1.248.019-1.87 2.485.008 4.97-.001 7.454.008.002.6.027 1.201-.006 1.802-.101.116-.296.038-.432.065-2.345-.01-4.69 0-7.035-.005z"/></svg>