<svg xmlns="http://www.w3.org/2000/svg" xmlns:xlink="http://www.w3.org/1999/xlink" width="800" height="300" viewBox="0 0 211.667 79.375"><defs><linearGradient id="a"><stop style="stop-color:#c6e06f;stop-opacity:1" offset="0"/><stop style="stop-color:#eede4d;stop-opacity:1" offset="1"/></linearGradient><linearGradient xlink:href="#a" id="b" x1="107.912" y1="49.326" x2="108.479" y2="3.591" gradientUnits="userSpaceOnUse" gradientTransform="matrix(1 0 0 1.09452 .378 -.071)"/></defs><g style="display:inline"><path style="opacity:1;vector-effect:none;fill:url(#b);fill-opacity:1;stroke:none;stroke-width:.36907354;stroke-linecap:butt;stroke-linejoin:miter;stroke-miterlimit:4;stroke-dasharray:none;stroke-dashoffset:0;stroke-opacity:1" d="M0 .756h211.667v57.918H0z"/><path style="opacity:1;vector-effect:none;fill:#79accd;fill-opacity:1;stroke:none;stroke-width:.20439252;stroke-linecap:butt;stroke-linejoin:miter;stroke-miterlimit:4;stroke-dasharray:none;stroke-dashoffset:0;stroke-opacity:1" d="M0 57.15h211.667v2.91H0z"/></g><g style="display:inline"><g transform="translate(-.39 13.733) scale(.77095)" onclick="alert(&quot;clik&quot;)" style="image-rendering:auto"><ellipse cx="100.71" cy="96.561" rx="101.349" ry="95.603" style="display:inline;fill:#79accd;fill-opacity:1;stroke-width:1.21603298" transform="translate(5.635 35.82) scale(.26458)"/><ellipse style="display:inline;fill:#f9fbfa;fill-opacity:1;stroke-width:.26657382" ry="20.565" rx="22.641" cy="61.368" cx="32.324"/></g></g><g style="display:inline"><path style="opacity:1;vector-effect:none;fill:#f9fbfa;fill-opacity:1;stroke:none;stroke-width:.69963753;stroke-linecap:butt;stroke-linejoin:miter;stroke-miterlimit:4;stroke-dasharray:none;stroke-dashoffset:0;stroke-opacity:1" d="M0 60.06h211.667v29.315H0z"/></g><path d="M23.598 48.093a232.38 232.38 0 0 1 1.867 0l.024 1.972c.735.005 1.47.007 2.206 0 .082.634.05 1.276.026 1.914a79.355 79.355 0 0 0-2.23-.007c-.02 1.413.03 2.825.01 4.237 1.021.184 1.935.684 2.788 1.256.06-1.035-.096-2.159.457-3.094.638-1.214 2.004-2.04 3.384-1.947.75-.03 1.477.24 2.093.655.987.669 1.574 1.837 1.609 3.021-.014 3.228-.006 6.455-.007 9.682-.008.548.004 1.09.009 1.629-.602.02-1.287.023-1.896 0-.022-3.73 0-7.462-.012-11.192-.007-.671-.332-1.38-.95-1.692-.373-.244-.84-.238-1.265-.192-.671.099-1.234.628-1.425 1.27-.075.37-.074.748-.08 1.122.002 3.566-.002 7.132.003 10.698a20.43 20.43 0 0 1-1.885-.01c-.034-1.86-.006-3.72-.013-5.58a3.926 3.926 0 0 0-.277-1.425c-.457-1.244-1.658-2.204-2.984-2.327-.596-.016-1.221-.069-1.778.188-1.213.437-2.178 1.545-2.377 2.826-.11.794-.04 1.599-.059 2.397-.024 1.31.05 2.623-.032 3.933-.618.012-1.237.02-1.855-.018-.02-3.664 0-7.329-.01-10.993-.005-.468-.072-.96-.357-1.346-.379-.577-1.103-.855-1.776-.742l-.326.054-.029.01a4.556 4.556 0 0 0-.694.41l-.022.021c-.154.22-.295.45-.409.695a.297.297 0 0 1-.01.028l-.053.214c-.14.557-.074 1.132-.083 1.7-.005 3.32.01 6.642-.007 9.964-.621.025-1.244.023-1.866-.003-.035-2.838-.004-5.676-.019-8.515.01-.825-.006-1.65.009-2.475.025-.752.095-1.541.53-2.182.477-.879 1.36-1.473 2.305-1.75.504-.099 1.02-.073 1.53-.047.274-.005.541.048.78.185l.106.05c1.156.526 2.074 1.618 2.225 2.899.144.615-.005 1.25.12 1.865.465-.307.932-.615 1.44-.847.402-.192.846-.26 1.27-.387.002-1.417-.006-2.834-.013-4.251-.74 0-1.479.008-2.219.003-.106-.628-.058-1.267-.064-1.9h2.289c0-.66-.001-1.317.002-1.976z" style="opacity:1;fill:#00a3e4;stroke-width:.10408381"/><path style="opacity:1;fill:#273693;stroke-width:.10408381" d="M23.806 60.064c.625-.269 1.395-.182 1.932.241.47.349.707.948.699 1.525-.008 1.856.003 3.712-.008 5.567-1.24.046-2.483.022-3.724.014-.028-1.79-.006-3.578-.016-5.369-.085-.81.353-1.66 1.117-1.978zm-10.514 9.214c2.512.005 5.023-.011 7.534.012.006.63.02 1.26-.012 1.889-2.506.006-5.012-.001-7.518.003-.006-.635-.003-1.269-.004-1.904zm9.411 1.882c-.004-.622-.018-1.245.01-1.865 1.239.004 2.477-.007 3.715.005.011.612.006 1.224.008 1.837-1.243.06-2.489.02-3.734.023zm5.617.004c-.005-.622-.034-1.248.019-1.87 2.485.008 4.97-.001 7.454.008.002.6.027 1.201-.006 1.802-.101.116-.296.038-.432.065-2.345-.01-4.69 0-7.035-.005z"/><g style="font-style:normal;font-weight:400;font-size:40px;line-height:1.25;font-family:sans-serif;letter-spacing:0;word-spacing:0;display:inline;fill:#000;fill-opacity:1;stroke:none"><path d="M229.512 84.537c4.28 0 6.96-3.12 7.12-8.28.04-.48-.2-.76-.68-.76h-3.64c-.4 0-.64.24-.68.68-.08 2.4-.92 3.64-2.24 3.64-1.28 0-2.04-.92-2.04-2.44v-14.64c0-1.52.76-2.44 2.04-2.44 1.2 0 2 1.04 2.08 3.28 0 .44.28.68.68.68h3.64c.44 0 .68-.24.68-.72-.16-4.96-2.88-7.96-6.96-7.96-4.32 0-7.2 3-7.2 7.52v13.92c0 4.48 2.88 7.52 7.2 7.52zm10.128-.48h3.28c.48 0 .72-.24.72-.72v-13.24c0-1.24.72-2.04 1.84-2.04 1.16 0 1.84.8 1.84 2.04v13.24c0 .48.28.72.72.72h3.32c.48 0 .72-.24.72-.72v-12.96c0-4.04-2.48-6.8-6.08-6.8-.84 0-1.68.32-2.36.8v-7.64c0-.44-.24-.68-.72-.68h-3.28c-.48 0-.72.24-.72.68v26.6c0 .48.24.72.72.72zm16.088-20c-.44 0-.68.24-.68.72v13c0 4 2.6 6.76 6.52 6.76 3.92 0 6.52-2.76 6.52-6.76v-13c0-.48-.24-.72-.68-.72h-3.32c-.44 0-.72.24-.72.72v13.24c0 1.24-.68 2.08-1.8 2.08-1.16 0-1.84-.84-1.84-2.08v-13.24c0-.48-.24-.72-.68-.72zm15.86 20h3.32c.44 0 .68-.24.68-.72v-11.96c0-1.8 1.12-2.92 2.88-2.92h1c.44 0 .72-.24.72-.68v-3.04c0-.48-.28-.72-.72-.72h-1.16c-4.52 0-7.4 2.92-7.4 7.92v11.4c0 .48.24.72.68.72zm16.345.48c3.76 0 6.32-2.52 6.6-6.48.04-.52-.2-.8-.68-.8h-3.4c-.4 0-.64.24-.68.72-.16 1.4-.84 2.08-1.88 2.08-1.16 0-1.84-.8-1.84-2.04v-7.92c0-1.24.68-2.04 1.8-2.04 1 0 1.64.6 1.8 1.88.04.48.28.72.68.72h3.4c.44 0 .72-.24.68-.72-.28-3.88-2.84-6.36-6.56-6.36-3.92 0-6.56 2.76-6.56 6.76v7.4c0 4.04 2.68 6.8 6.64 6.8zm9.597-.48h3.28c.48 0 .72-.24.72-.72v-13.24c0-1.24.72-2.04 1.84-2.04 1.16 0 1.84.8 1.84 2.04v13.24c0 .48.28.72.72.72h3.32c.48 0 .72-.24.72-.72v-12.96c0-4.04-2.48-6.8-6.08-6.8-.84 0-1.68.32-2.36.8v-7.64c0-.44-.24-.68-.72-.68h-3.28c-.48 0-.72.24-.72.68v26.6c0 .48.24.72.72.72zm39.648-28.48c-1.84 0-3.24.72-4.4 1.76-1.12-1.04-2.52-1.76-4.4-1.76-4.16 0-6.88 3.04-6.88 7.64v20.12c0 .48.24.72.72.72h3.52c.48 0 .72-.24.72-.72v-20.48c0-1.64.68-2.56 1.92-2.56 1.2 0 1.96.92 1.96 2.56v20.48c0 .48.24.72.68.72h3.52c.48 0 .72-.24.72-.72v-20.48c0-1.64.72-2.56 1.92-2.56 1.28 0 1.96.92 1.96 2.56v20.48c0 .48.24.72.68.72h3.56c.44 0 .72-.24.72-.72v-20.12c0-4.6-2.72-7.64-6.92-7.64zm12.774 6.08c1.48 0 2.64-1.24 2.64-2.64 0-1.52-1.16-2.64-2.64-2.64-1.56 0-2.64 1.12-2.64 2.64 0 1.48 1.08 2.64 2.64 2.64zm-1.64 22.4h3.28c.48 0 .72-.24.72-.72v-18.6c0-.44-.24-.68-.72-.68h-3.28c-.48 0-.72.24-.72.68v18.6c0 .48.24.72.72.72zm7.807 0h3.32c.44 0 .68-.24.68-.72v-13.24c0-1.24.68-2.08 1.84-2.08 1.12 0 1.8.84 1.8 2.08v13.24c0 .48.28.72.72.72h3.32c.44 0 .68-.24.68-.72v-13c0-4-2.6-6.76-6.52-6.76-3.92 0-6.52 2.76-6.52 6.76v13c0 .48.24.72.68.72zm17.974-22.4c1.48 0 2.64-1.24 2.64-2.64 0-1.52-1.16-2.64-2.64-2.64-1.56 0-2.64 1.12-2.64 2.64 0 1.48 1.08 2.64 2.64 2.64zm-1.64 22.4h3.28c.48 0 .72-.24.72-.72v-18.6c0-.44-.24-.68-.72-.68h-3.28c-.48 0-.72.24-.72.68v18.6c0 .48.24.72.72.72zm13.645.48c3.92 0 6.56-2.52 6.56-6.04 0-6.56-8.56-5.96-8.56-8.96 0-.88.68-1.52 1.72-1.52s1.6.6 1.76 1.48c.08.4.28.68.72.68h3.32c.6 0 .68-.4.68-.72-.08-2.6-1.88-5.88-6.52-5.88-3.72 0-6.4 2.32-6.4 5.84 0 6.4 8.52 5.8 8.52 8.92 0 .96-.68 1.72-1.92 1.72-1.36 0-1.92-.92-2.08-2.16-.12-.48-.44-.64-.76-.64h-3.32c-.6 0-.68.44-.68.84.08 3.2 2.44 6.44 6.96 6.44zm18.27-4.76h-.4c-1.84 0-2.72-.96-2.72-2.96v-8.52h2.68c.44 0 .68-.24.68-.68v-2.88c0-.44-.24-.68-.68-.68h-2.68v-5.16c0-.44-.24-.68-.68-.68h-3.32c-.44 0-.68.24-.68.68v5.16h-2c-.44 0-.68.24-.68.68v2.88c0 .44.24.68.68.68h2v8.44c0 4.6 2.68 7.48 7.04 7.48h.76c.44 0 .68-.24.68-.68v-3.08c0-.44-.24-.68-.68-.68zm3.626 4.28h3.32c.44 0 .68-.24.68-.72v-11.96c0-1.8 1.12-2.92 2.88-2.92h1c.44 0 .72-.24.72-.68v-3.04c0-.48-.28-.72-.72-.72h-1.16c-4.52 0-7.4 2.92-7.4 7.92v11.4c0 .48.24.72.68.72zm12.974-22.4c1.48 0 2.64-1.24 2.64-2.64 0-1.52-1.16-2.64-2.64-2.64-1.56 0-2.64 1.12-2.64 2.64 0 1.48 1.08 2.64 2.64 2.64zm-1.64 22.4h3.28c.48 0 .72-.24.72-.72v-18.6c0-.44-.24-.68-.72-.68h-3.28c-.48 0-.72.24-.72.68v18.6c0 .48.24.72.72.72zm12.86.44c3.72 0 6.32-2.44 6.6-6.08 0-.48-.24-.72-.68-.72h-3.36c-.4 0-.64.2-.72.68-.16 1.04-.8 1.68-1.8 1.68-1.16 0-1.8-.8-1.8-2.04v-1.68h1.96c3.92 0 6.56-2.52 6.56-6.2 0-3.92-2.8-6.6-6.64-6.52-3.96 0-6.56 2.64-6.64 6.56v7.56c0 4.08 2.64 6.76 6.52 6.76zm-1.76-12.32v-2.08c0-1.24.64-2.04 1.88-2.04 1.2 0 1.92.76 1.92 2.2 0 1.2-.68 1.92-1.84 1.92zm17.545 12.36c3.92 0 6.56-2.52 6.56-6.04 0-6.56-8.56-5.96-8.56-8.96 0-.88.68-1.52 1.72-1.52s1.6.6 1.76 1.48c.08.4.28.68.72.68h3.32c.6 0 .68-.4.68-.72-.08-2.6-1.88-5.88-6.52-5.88-3.72 0-6.4 2.32-6.4 5.84 0 6.4 8.52 5.8 8.52 8.92 0 .96-.68 1.72-1.92 1.72-1.36 0-1.92-.92-2.08-2.16-.12-.48-.44-.64-.76-.64h-3.32c-.6 0-.68.44-.68.84.08 3.2 2.44 6.44 6.96 6.44zm17.866-27.8v26.6c0 .48.24.72.72.72h3.56c.44 0 .72-.24.72-.72v-26.6c0-.44-.28-.68-.72-.68h-3.56c-.48 0-.72.24-.72.68zm9.186 27.32h3.32c.44 0 .68-.24.68-.72v-13.24c0-1.24.68-2.08 1.84-2.08 1.12 0 1.8.84 1.8 2.08v13.24c0 .48.28.72.72.72h3.32c.44 0 .68-.24.68-.72v-13c0-4-2.6-6.76-6.52-6.76-3.92 0-6.52 2.76-6.52 6.76v13c0 .48.24.72.68.72zm21.932.48c3.92 0 6.56-2.52 6.56-6.04 0-6.56-8.56-5.96-8.56-8.96 0-.88.68-1.52 1.72-1.52s1.6.6 1.76 1.48c.08.4.28.68.72.68h3.32c.6 0 .68-.4.68-.72-.08-2.6-1.88-5.88-6.52-5.88-3.72 0-6.4 2.32-6.4 5.84 0 6.4 8.52 5.8 8.52 8.92 0 .96-.68 1.72-1.92 1.72-1.36 0-1.92-.92-2.08-2.16-.12-.48-.44-.64-.76-.64h-3.32c-.6 0-.68.44-.68.84.08 3.2 2.44 6.44 6.96 6.44zm18.271-4.76h-.4c-1.84 0-2.72-.96-2.72-2.96v-8.52h2.68c.44 0 .68-.24.68-.68v-2.88c0-.44-.24-.68-.68-.68h-2.68v-5.16c0-.44-.24-.68-.68-.68h-3.32c-.44 0-.68.24-.68.68v5.16h-2c-.44 0-.68.24-.68.68v2.88c0 .44.24.68.68.68h2v8.44c0 4.6 2.68 7.48 7.04 7.48h.76c.44 0 .68-.24.68-.68v-3.08c0-.44-.24-.68-.68-.68zm5.505-18.12c1.48 0 2.64-1.24 2.64-2.64 0-1.52-1.16-2.64-2.64-2.64-1.56 0-2.64 1.12-2.64 2.64 0 1.48 1.08 2.64 2.64 2.64zm-1.64 22.4h3.28c.48 0 .72-.24.72-.72v-18.6c0-.44-.24-.68-.72-.68h-3.28c-.48 0-.72.24-.72.68v18.6c0 .48.24.72.72.72zm16.603-4.28h-.4c-1.84 0-2.72-.96-2.72-2.96v-8.52h2.68c.44 0 .68-.24.68-.68v-2.88c0-.44-.24-.68-.68-.68h-2.68v-5.16c0-.44-.24-.68-.68-.68h-3.32c-.44 0-.68.24-.68.68v5.16h-2c-.44 0-.68.24-.68.68v2.88c0 .44.24.68.68.68h2v8.44c0 4.6 2.68 7.48 7.04 7.48h.76c.44 0 .68-.24.68-.68v-3.08c0-.44-.24-.68-.68-.68zm3.548-15.72c-.44 0-.68.24-.68.72v13c0 4 2.6 6.76 6.52 6.76 3.92 0 6.52-2.76 6.52-6.76v-13c0-.48-.24-.72-.68-.72h-3.32c-.44 0-.72.24-.72.72v13.24c0 1.24-.68 2.08-1.8 2.08-1.16 0-1.84-.84-1.84-2.08v-13.24c0-.48-.24-.72-.68-.72zm24.812 15.72h-.4c-1.84 0-2.72-.96-2.72-2.96v-8.52h2.68c.44 0 .68-.24.68-.68v-2.88c0-.44-.24-.68-.68-.68h-2.68v-5.16c0-.44-.24-.68-.68-.68h-3.32c-.44 0-.68.24-.68.68v5.16h-2c-.44 0-.68.24-.68.68v2.88c0 .44.24.68.68.68h2v8.44c0 4.6 2.68 7.48 7.04 7.48h.76c.44 0 .68-.24.68-.68v-3.08c0-.44-.24-.68-.68-.68zm8.757 4.72c3.72 0 6.32-2.44 6.6-6.08 0-.48-.24-.72-.68-.72h-3.36c-.4 0-.64.2-.72.68-.16 1.04-.8 1.68-1.8 1.68-1.16 0-1.8-.8-1.8-2.04v-1.68h1.96c3.92 0 6.56-2.52 6.56-6.2 0-3.92-2.8-6.6-6.64-6.52-3.96 0-6.56 2.64-6.64 6.56v7.56c0 4.08 2.64 6.76 6.52 6.76zm-1.76-12.32v-2.08c0-1.24.64-2.04 1.88-2.04 1.2 0 1.92.76 1.92 2.2 0 1.2-.68 1.92-1.84 1.92z" style="font-style:normal;font-variant:normal;font-weight:800;font-stretch:normal;font-family:Phenomena;-inkscape-font-specification:'Phenomena Ultra-Bold';text-align:center;text-anchor:middle;fill:#181d43;fill-opacity:1" transform="translate(0 21.167) scale(.26458)" aria-label="Church Ministries Institute"/></g></svg>