<?xml version="1.0" encoding="UTF-8" standalone="no"?>
<!-- Created with Inkscape (http://www.inkscape.org/) -->

<svg
   xmlns:dc="http://purl.org/dc/elements/1.1/"
   xmlns:cc="http://creativecommons.org/ns#"
   xmlns:rdf="http://www.w3.org/1999/02/22-rdf-syntax-ns#"
   xmlns:svg="http://www.w3.org/2000/svg"
   xmlns="http://www.w3.org/2000/svg"
   xmlns:sodipodi="http://sodipodi.sourceforge.net/DTD/sodipodi-0.dtd"
   xmlns:inkscape="http://www.inkscape.org/namespaces/inkscape"
   version="1.1"
   id="svg3769"
   width="200"
   height="150"
   viewBox="0 0 200 150"
   sodipodi:docname="logo.svg"
   inkscape:version="0.92.3 (2405546, 2018-03-11)">
  <metadata
     id="metadata3775">
    <rdf:RDF>
      <cc:Work
         rdf:about="">
        <dc:format>image/svg+xml</dc:format>
        <dc:type
           rdf:resource="http://purl.org/dc/dcmitype/StillImage" />
        <dc:title></dc:title>
      </cc:Work>
    </rdf:RDF>
  </metadata>
  <defs
     id="defs3773">
    <clipPath
       clipPathUnits="userSpaceOnUse"
       id="clipPath843">
      <rect
         style="fill:#f9fbfa;fill-opacity:1;stroke:none;stroke-width:1.15120327;stroke-opacity:1"
         id="rect845"
         width="208"
         height="112"
         x="-3"
         y="-21.333328" />
    </clipPath>
  </defs>
  <sodipodi:namedview
     pagecolor="#ffffff"
     bordercolor="#666666"
     borderopacity="1"
     objecttolerance="10"
     gridtolerance="10"
     guidetolerance="10"
     inkscape:pageopacity="0"
     inkscape:pageshadow="2"
     inkscape:window-width="1920"
     inkscape:window-height="1028"
     id="namedview3771"
     showgrid="false"
     inkscape:zoom="3.1327433"
     inkscape:cx="104.95352"
     inkscape:cy="67.750716"
     inkscape:window-x="0"
     inkscape:window-y="0"
     inkscape:window-maximized="1"
     inkscape:current-layer="layer2"
     showguides="true"
     inkscape:guide-bbox="true"
     inkscape:pagecheckerboard="true" />
  <g
     inkscape:groupmode="layer"
     id="layer1"
     inkscape:label="Bottom"
     style="display:inline"
     transform="translate(0,-0.66667175)" />
  <g
     inkscape:groupmode="layer"
     id="layer2"
     inkscape:label="Middle"
     style="display:inline"
     transform="translate(0,-0.66667175)">
    <ellipse
       style="display:inline;fill:#79accd;fill-opacity:1;stroke-width:1.21603298"
       ry="95.603104"
       rx="101.34887"
       cy="96.560745"
       cx="100.71046"
       id="ellipse3800"
       clip-path="url(#clipPath843)" />
    <ellipse
       id="path3798"
       cx="100.87083"
       cy="96.560745"
       rx="85.572868"
       ry="77.727402"
       style="fill:#ffffff;fill-opacity:1;stroke-width:1.00752306" />
  </g>
  <g
     inkscape:groupmode="layer"
     id="layer3"
     inkscape:label="Top"
     style="display:inline"
     transform="translate(0,-0.66667175)" />
  <g
     inkscape:groupmode="layer"
     id="layer4"
     inkscape:label="Logo"
     transform="translate(0,-0.66667175)">
    <path
       d="m 96.298423,32.95657 c 3.051387,-0.01531 6.102777,-0.01021 9.154167,0 0.0357,3.219775 0.0816,6.444655 0.11736,9.669531 3.60248,0.0204 7.21006,0.03061 10.81763,-0.0051 0.398,3.112622 0.24492,6.260958 0.12757,9.388889 -3.6433,-0.07144 -7.2917,-0.06634 -10.935,-0.0357 -0.0969,6.924304 0.14799,13.848607 0.046,20.772914 5.0108,0.898064 9.49094,3.352444 13.67001,6.153802 0.29596,-5.072042 -0.46944,-10.582911 2.24007,-15.165094 3.12792,-5.9548 9.82771,-10.00631 16.59384,-9.547072 3.67391,-0.142872 7.24066,1.173613 10.25633,3.209573 4.84243,3.281007 7.72032,9.006187 7.88871,14.813012 -0.0664,15.82333 -0.0255,31.646685 -0.0306,47.464905 -0.0408,2.68774 0.0173,5.33874 0.0412,7.98566 -2.9507,0.10001 -6.30723,0.11226 -9.29229,0 -0.11226,-18.28791 0,-36.580945 -0.0612,-54.868862 -0.0357,-3.291213 -1.62775,-6.766122 -4.65873,-8.291818 -1.82675,-1.199123 -4.11784,-1.168507 -6.19972,-0.943992 -3.29122,0.484753 -6.05176,3.076901 -6.98554,6.230343 -0.36739,1.80634 -0.36229,3.663709 -0.3929,5.495561 0.0102,17.481694 -0.0103,34.963408 0.0153,52.445108 -3.082,0.10715 -6.164,0.13267 -9.24091,-0.046 -0.16838,-9.11845 -0.0307,-18.23689 -0.0663,-27.35533 -0.0153,-2.388044 -0.47456,-4.77099 -1.35731,-6.985544 -2.24007,-6.09768 -8.12853,-10.807429 -14.62932,-11.409541 -2.91872,-0.07654 -5.985419,-0.336775 -8.715335,0.923579 -5.944598,2.143116 -10.674759,7.572343 -11.654468,13.853724 -0.53578,3.893322 -0.193899,7.837682 -0.285751,11.751402 -0.117358,6.42425 0.244932,12.8587 -0.158177,19.27784 -3.030978,0.0612 -6.067064,0.10205 -9.092935,-0.0868 -0.09696,-17.96135 -0.0048,-35.927809 -0.05107,-53.894259 -0.02554,-2.291094 -0.352076,-4.704652 -1.750206,-6.597735 -1.857371,-2.826876 -5.408818,-4.189285 -8.705137,-3.638198 -0.398003,0.06633 -1.199125,0.199003 -1.597127,0.26534 -0.03569,0.01022 -0.107154,0.04082 -0.142875,0.05102 -1.204222,0.551086 -2.321709,1.260354 -3.403474,2.010445 -0.02554,0.02553 -0.08164,0.07654 -0.107154,0.102054 -0.755196,1.081765 -1.449154,2.209449 -2.005344,3.408576 -0.01025,0.0357 -0.03569,0.10205 -0.05107,0.137772 -0.06635,0.260235 -0.193908,0.785808 -0.260234,1.046043 -0.683763,2.729919 -0.362291,5.551687 -0.403109,8.332636 -0.02554,16.282571 0.04594,32.565146 -0.03569,48.852816 -3.04628,0.12247 -6.097668,0.11226 -9.149055,-0.0153 -0.17349,-13.91495 -0.02041,-27.829885 -0.09189,-41.744826 0.04595,-4.046405 -0.03066,-8.09281 0.04082,-12.134113 0.122466,-3.689221 0.469445,-7.557036 2.602362,-10.70027 2.33701,-4.306641 6.669169,-7.220261 11.297274,-8.577565 2.469691,-0.484753 5.005708,-0.357188 7.506013,-0.229619 1.336892,-0.02553 2.648278,0.23472 3.816778,0.908271 0.132671,0.06123 0.392905,0.183696 0.520478,0.239827 5.669042,2.581941 10.169583,7.934629 10.909477,14.215997 0.704163,3.01567 -0.02554,6.128289 0.591901,9.143959 2.275792,-1.505282 4.566887,-3.01567 7.05188,-4.153561 1.97472,-0.938887 4.153553,-1.275663 6.230339,-1.898188 0.01025,-6.944713 -0.03066,-13.89453 -0.06123,-20.839246 -3.627996,0 -7.250876,0.04082 -10.878872,0.01531 C 84.863323,48.87683 85.09805,45.748899 85.067436,42.641382 H 96.28817 c 0.0048,-3.229981 -0.0048,-6.454857 0.01025,-9.684839 z"
       id="path4920"
       inkscape:connector-curvature="0"
       style="opacity:1;fill:#00a3e4;stroke-width:0.51026559"
       sodipodi:nodetypes="ccccccccccccccccccccccccccccccccccccccccccccccccccccccccccc" />
    <g
       transform="matrix(0.51026559,0,0,0.51026559,-7.2957036,-14.508337)"
       id="#273693ff">
      <path
         style="opacity:1;fill:#273693"
         inkscape:connector-curvature="0"
         d="m 134.36,153.54 c 0.07,-0.02 0.21,-0.08 0.28,-0.1 -0.07,0.02 -0.21,0.08 -0.28,0.1 z"
         id="path4923" />
      <path
         style="opacity:1;fill:#273693"
         inkscape:connector-curvature="0"
         d="m 127.48,157.68 c 0.05,-0.05 0.16,-0.15 0.21,-0.2 -0.05,0.05 -0.16,0.15 -0.21,0.2 z"
         id="path4925" />
      <path
         style="opacity:1;fill:#273693"
         inkscape:connector-curvature="0"
         d="m 123.45,164.63 c 0.03,-0.07 0.08,-0.2 0.1,-0.27 -0.02,0.07 -0.07,0.2 -0.1,0.27 z"
         id="path4927" />
      <path
         style="opacity:1;fill:#273693"
         inkscape:connector-curvature="0"
         d="m 205.02,208.03 c 6.01,-2.58 13.4,-1.75 18.56,2.32 4.52,3.35 6.8,9.11 6.72,14.65 -0.08,17.83 0.03,35.66 -0.08,53.49 -11.91,0.44 -23.85,0.21 -35.78,0.13 -0.27,-17.19 -0.05,-34.38 -0.15,-51.58 -0.82,-7.79 3.39,-15.95 10.73,-19.01 z"
         id="path4929" />
      <path
         style="opacity:1;fill:#273693"
         inkscape:connector-curvature="0"
         d="m 104.01,296.56 c 24.13,0.05 48.26,-0.11 72.38,0.11 0.06,6.05 0.2,12.11 -0.11,18.15 -24.08,0.06 -48.16,-0.01 -72.23,0.03 -0.06,-6.1 -0.03,-12.19 -0.04,-18.29 z"
         id="path4931" />
      <path
         style="opacity:1;fill:#273693"
         inkscape:connector-curvature="0"
         d="m 194.42,314.64 c -0.03,-5.98 -0.17,-11.96 0.1,-17.92 11.9,0.04 23.8,-0.07 35.69,0.05 0.11,5.88 0.06,11.76 0.08,17.65 -11.94,0.57 -23.91,0.19 -35.87,0.22 z"
         id="path4933" />
      <path
         style="opacity:1;fill:#273693"
         inkscape:connector-curvature="0"
         d="m 248.39,314.68 c -0.05,-5.98 -0.33,-11.99 0.18,-17.96 23.88,0.07 47.75,-0.02 71.62,0.07 0.02,5.76 0.26,11.54 -0.06,17.31 -0.97,1.12 -2.84,0.37 -4.15,0.63 -22.53,-0.1 -45.06,0 -67.59,-0.05 z"
         id="path4935" />
    </g>
  </g>
</svg>
