<svg xmlns="http://www.w3.org/2000/svg" xmlns:xlink="http://www.w3.org/1999/xlink" width="200" height="200"><defs><linearGradient id="a"><stop style="stop-color:#d1d257;stop-opacity:1" offset="0"/><stop style="stop-color:#c6dcea;stop-opacity:1" offset="1"/></linearGradient><linearGradient xlink:href="#a" id="b" x1="-23.302" y1="-35.432" x2="-24.898" y2="147.155" gradientUnits="userSpaceOnUse"/></defs><g style="display:inline"><path style="display:inline;fill:url(#b);fill-opacity:1;stroke:none;stroke-width:1.50848627;stroke-opacity:1" d="M0-49.333h200v200H0z" transform="translate(0 49.333)"/></g><g style="display:inline" transform="translate(0 49.333)"><ellipse style="display:inline;fill:#79accd;fill-opacity:1;stroke-width:.91729099" ry="72.116" rx="76.451" cy="50.561" cx="100.71"/><ellipse cx="100.831" cy="50.561" rx="64.55" ry="58.632" style="fill:#fff;fill-opacity:1;stroke-width:.76000559"/></g><path d="M97.382.582a825.72 825.72 0 0 1 6.906 0c.026 2.429.061 4.862.088 7.294 2.718.016 5.439.023 8.16-.004.3 2.348.185 4.723.096 7.083-2.748-.054-5.5-.05-8.248-.027-.073 5.223.111 10.446.034 15.67 3.78.677 7.16 2.528 10.312 4.641.223-3.826-.354-7.983 1.69-11.44 2.36-4.491 7.413-7.547 12.517-7.2 2.771-.109 5.462.885 7.737 2.42 3.653 2.475 5.824 6.794 5.95 11.174-.05 11.936-.019 23.872-.023 35.804-.03 2.028.014 4.028.032 6.024-2.226.076-4.758.085-7.01 0-.085-13.795 0-27.594-.046-41.389-.027-2.483-1.228-5.104-3.514-6.255-1.378-.904-3.107-.881-4.677-.712-2.483.366-4.565 2.321-5.27 4.7-.277 1.362-.273 2.764-.296 4.145.008 13.187-.008 26.374.012 39.561-2.325.081-4.65.1-6.971-.034-.127-6.879-.023-13.757-.05-20.635a14.518 14.518 0 0 0-1.024-5.27c-1.69-4.6-6.131-8.152-11.035-8.606-2.202-.058-4.515-.254-6.574.696-4.485 1.617-8.053 5.712-8.792 10.45-.404 2.938-.146 5.913-.215 8.865-.089 4.846.184 9.7-.12 14.542-2.286.046-4.576.077-6.859-.066-.073-13.548-.003-27.101-.038-40.654-.02-1.728-.266-3.548-1.32-4.976-1.402-2.133-4.08-3.16-6.567-2.745l-1.205.2c-.027.008-.08.031-.108.039-.908.415-1.75.95-2.567 1.516l-.08.077c-.57.816-1.094 1.667-1.513 2.571a1.122 1.122 0 0 1-.039.104c-.05.197-.146.593-.196.79-.516 2.059-.274 4.187-.304 6.285-.02 12.282.034 24.565-.027 36.851a84.22 84.22 0 0 1-6.902-.011c-.13-10.497-.015-20.993-.069-31.49.035-3.052-.023-6.104.03-9.153.093-2.783.355-5.7 1.964-8.071 1.763-3.249 5.03-5.447 8.522-6.47 1.863-.366 3.776-.27 5.662-.174 1.008-.02 1.997.177 2.879.685.1.046.296.139.392.181 4.277 1.948 7.672 5.985 8.23 10.724.531 2.274-.02 4.622.446 6.897 1.717-1.135 3.445-2.275 5.32-3.133 1.49-.708 3.133-.962 4.7-1.432.007-5.238-.024-10.48-.047-15.72-2.736 0-5.47.031-8.206.012-.393-2.325-.216-4.684-.239-7.028h8.464c.004-2.437-.003-4.87.008-7.306z" style="opacity:1;fill:#00a3e4;stroke-width:.384909" transform="translate(0 49.333)"/><path style="opacity:1;fill:#273693" d="M134.36 153.54c.07-.02.21-.08.28-.1-.07.02-.21.08-.28.1zm-6.88 4.14c.05-.05.16-.15.21-.2-.05.05-.16.15-.21.2zm-4.03 6.95zm81.57 43.4c6.01-2.58 13.4-1.75 18.56 2.32 4.52 3.35 6.8 9.11 6.72 14.65-.08 17.83.03 35.66-.08 53.49-11.91.44-23.85.21-35.78.13-.27-17.19-.05-34.38-.15-51.58-.82-7.79 3.39-15.95 10.73-19.01zm-101.01 88.53c24.13.05 48.26-.11 72.38.11.06 6.05.2 12.11-.11 18.15-24.08.06-48.16-.01-72.23.03-.06-6.1-.03-12.19-.04-18.29zm90.41 18.08c-.03-5.98-.17-11.96.1-17.92 11.9.04 23.8-.07 35.69.05.11 5.88.06 11.76.08 17.65-11.94.57-23.91.19-35.87.22zm53.97.04c-.05-5.98-.33-11.99.18-17.96 23.88.07 47.75-.02 71.62.07.02 5.76.26 11.54-.06 17.31-.97 1.12-2.84.37-4.15.63-22.53-.1-45.06 0-67.59-.05z" transform="translate(19.238 14.111) scale(.3849)"/></svg>