<svg xmlns="http://www.w3.org/2000/svg" width="1993.507" height="114.987" viewBox="0 0 527.449 30.424"><g style="font-style:normal;font-weight:400;font-size:40px;line-height:1.25;font-family:sans-serif;text-align:center;letter-spacing:0;word-spacing:0;direction:ltr;text-anchor:middle;fill:#181d43;fill-opacity:1;stroke:none"><path d="M190.048 47.788q-12.992 0-19.862 9.707-6.869 9.707-6.869 26.581 0 17.024 6.272 26.432 6.421 9.259 20.459 9.259 6.421 0 12.992-1.493 6.57-1.494 14.186-4.182v18.966q-7.018 2.837-13.888 4.18-6.869 1.345-15.381 1.345-16.576 0-27.179-6.72-10.602-6.87-15.68-19.115-5.077-12.394-5.077-28.821 0-16.128 5.824-28.523 5.824-12.394 16.875-19.413 11.2-7.019 27.328-7.019 7.914 0 15.829 2.09 8.064 1.942 15.381 5.377l-7.317 18.368q-5.973-2.837-12.096-4.928-5.973-2.09-11.797-2.09zm70.294-24.192v23.147q0 6.123-.448 11.648-.299 5.376-.598 7.616h1.195q3.883-6.272 10.005-9.11 6.123-2.837 13.59-2.837 13.141 0 21.205 7.168 8.064 7.019 8.064 22.699v53.163h-22.25V89.452q0-17.621-13.142-17.621-10.005 0-13.888 7.019-3.733 6.869-3.733 19.86v38.38H238.09V23.596Zm150.565 31.958v81.536h-17.024l-2.987-10.454h-1.194q-3.883 6.272-10.752 9.11-6.72 2.837-14.336 2.837-13.142 0-21.056-7.019-7.915-7.168-7.915-22.848V55.554h22.25v47.637q0 8.81 3.137 13.29 3.136 4.331 10.005 4.331 10.155 0 13.888-6.87 3.733-7.018 3.733-20.01V55.554Zm68.731-1.494q1.642 0 3.882.15 2.24.149 3.584.448l-1.642 20.906q-1.195-.298-3.136-.448-1.942-.298-3.435-.298-5.675 0-10.901 2.09-5.227 1.942-8.512 6.422-3.136 4.48-3.136 12.245v41.515H434.09V55.554h16.875l3.285 13.738h1.045q3.584-6.272 9.856-10.752t14.486-4.48zm52.355 84.523q-18.219 0-28.224-10.005-9.856-10.006-9.856-31.808 0-14.934 5.077-24.342 5.078-9.408 14.038-13.888 9.109-4.48 20.906-4.48 8.363 0 14.486 1.643 6.272 1.643 10.901 3.883l-6.57 17.173q-5.227-2.09-9.857-3.435-4.48-1.344-8.96-1.344-17.322 0-17.322 24.64 0 12.246 4.48 18.07 4.629 5.824 12.842 5.824 7.019 0 12.395-1.792 5.376-1.942 10.453-5.227v18.965q-5.077 3.286-10.752 4.63-5.525 1.493-14.037 1.493zM597.8 23.596v23.147q0 6.123-.448 11.648-.299 5.376-.597 7.616h1.194q3.883-6.272 10.006-9.11 6.122-2.837 13.589-2.837 13.141 0 21.205 7.168 8.064 7.019 8.064 22.699v53.163h-22.25V89.452q0-17.621-13.142-17.621-10.005 0-13.888 7.019-3.733 6.869-3.733 19.86v38.38h-22.25V23.596ZM759.232 137.09l-25.686-83.627h-.597l.448 8.96q.299 5.973.597 12.843.299 6.869.299 12.245v49.579h-20.16V30.466h30.763l25.237 81.536h.448l26.73-81.536h30.763V137.09h-21.056V86.615q0-5.077.15-11.648.298-6.57.448-12.395l.448-8.96h-.598L779.99 137.09zM864.416 23.596q4.928 0 8.512 2.39 3.584 2.24 3.584 8.512 0 6.122-3.584 8.512-3.584 2.389-8.512 2.389-5.077 0-8.661-2.39-3.435-2.389-3.435-8.511 0-6.272 3.435-8.512 3.584-2.39 8.661-2.39zm11.05 31.958v81.536h-22.25V55.554Zm69.544-1.494q13.14 0 21.055 7.168 7.915 7.019 7.915 22.699v53.163h-22.25V89.452q0-8.81-3.137-13.141-3.136-4.48-10.005-4.48-10.155 0-13.888 7.019-3.733 6.869-3.733 19.86v38.38h-22.251V55.554h17.024l2.987 10.453h1.194q3.883-6.272 10.603-9.11 6.87-2.837 14.485-2.837zm62.906-30.464q4.928 0 8.512 2.39 3.584 2.24 3.584 8.512 0 6.122-3.584 8.512-3.584 2.389-8.512 2.389-5.077 0-8.661-2.39-3.435-2.389-3.435-8.511 0-6.272 3.435-8.512 3.584-2.39 8.661-2.39zm11.05 31.958v81.536h-22.25V55.554Zm80.146 57.344q0 12.394-8.81 19.114-8.662 6.57-25.985 6.57-8.512 0-14.634-1.194-6.123-1.045-12.246-3.584v-18.368q6.571 2.987 14.187 4.928 7.616 1.942 13.44 1.942 6.421 0 9.259-1.942 2.837-1.941 2.837-5.077 0-2.09-1.195-3.733-1.045-1.643-4.778-3.734-3.734-2.09-11.648-5.376-7.766-3.285-12.694-6.421-4.778-3.285-7.168-7.765-2.389-4.63-2.389-11.5 0-11.348 8.81-17.023 8.811-5.675 23.446-5.675 7.616 0 14.485 1.494 6.87 1.493 14.187 4.928l-6.72 15.978q-5.973-2.538-11.35-4.181-5.375-1.792-10.9-1.792-9.857 0-9.857 5.376 0 1.941 1.195 3.584 1.344 1.493 4.928 3.285 3.733 1.792 10.901 4.779 7.02 2.837 12.096 5.973 5.078 2.987 7.766 7.616 2.837 4.63 2.837 11.798zm51.534 7.914q3.733 0 7.168-.597 3.435-.747 6.87-1.941v16.576q-3.585 1.642-8.96 2.688-5.227 1.045-11.5 1.045-7.317 0-13.14-2.39-5.675-2.389-9.11-8.213-3.285-5.824-3.285-16.426V72.279h-10.603V62.87l12.245-7.467 6.422-17.173h14.186v17.323h22.848v16.725h-22.848v39.275q0 4.629 2.688 7.018 2.688 2.24 7.019 2.24zm75.95-66.752q1.643 0 3.883.15 2.24.149 3.584.448l-1.643 20.906q-1.195-.298-3.136-.448-1.941-.298-3.435-.298-5.674 0-10.901 2.09-5.227 1.942-8.512 6.422-3.136 4.48-3.136 12.245v41.515h-22.25V55.554h16.874l3.285 13.738h1.046q3.584-6.272 9.856-10.752t14.485-4.48zm33.32-30.464q4.928 0 8.512 2.39 3.584 2.24 3.584 8.512 0 6.122-3.584 8.512-3.584 2.389-8.512 2.389-5.077 0-8.661-2.39-3.435-2.389-3.435-8.511 0-6.272 3.435-8.512 3.584-2.39 8.661-2.39zm11.05 31.958v81.536h-22.25V55.554Zm56.85-1.494q16.875 0 26.73 9.707 9.857 9.557 9.857 27.328v10.752h-52.566q.299 9.408 5.526 14.784 5.376 5.376 14.784 5.376 7.765 0 14.186-1.493 6.571-1.643 13.44-4.928v17.173q-6.122 2.987-12.693 4.33-6.57 1.494-15.979 1.494-12.245 0-21.653-4.48-9.408-4.63-14.784-13.739-5.376-9.258-5.376-23.445 0-14.187 4.779-23.744 4.928-9.557 13.589-14.336 8.661-4.779 20.16-4.779zm.15 15.83q-6.571 0-10.753 4.18-4.181 4.182-4.928 12.993h31.211q-.15-7.317-4.032-12.245-3.733-4.928-11.499-4.928zm111.521 43.008q0 12.394-8.81 19.114-8.662 6.57-25.984 6.57-8.512 0-14.635-1.194-6.123-1.045-12.245-3.584v-18.368q6.57 2.987 14.186 4.928 7.616 1.942 13.44 1.942 6.421 0 9.259-1.942 2.837-1.941 2.837-5.077 0-2.09-1.195-3.733-1.045-1.643-4.778-3.734-3.733-2.09-11.648-5.376-7.765-3.285-12.693-6.421-4.78-3.285-7.168-7.765-2.39-4.63-2.39-11.5 0-11.348 8.81-17.023 8.812-5.675 23.446-5.675 7.616 0 14.486 1.494 6.869 1.493 14.186 4.928l-6.72 15.978q-5.973-2.538-11.35-4.181-5.375-1.792-10.9-1.792-9.856 0-9.856 5.376 0 1.941 1.194 3.584 1.344 1.493 4.928 3.285 3.734 1.792 10.902 4.779 7.018 2.837 12.096 5.973 5.077 2.987 7.765 7.616 2.837 4.63 2.837 11.798zm97.643 24.192h-48.533v-12.843l12.992-5.973V49.282l-12.992-5.974V30.466h48.533v12.842l-12.992 5.974v68.992l12.992 5.973zm62.671-83.03q13.141 0 21.056 7.168 7.915 7.019 7.915 22.699v53.163h-22.25V89.452q0-8.81-3.137-13.141-3.136-4.48-10.005-4.48-10.155 0-13.888 7.019-3.734 6.869-3.734 19.86v38.38h-22.25V55.554h17.024l2.986 10.453h1.195q3.883-6.272 10.603-9.11 6.87-2.837 14.485-2.837zm108.603 58.838q0 12.394-8.81 19.114-8.662 6.57-25.985 6.57-8.512 0-14.635-1.194-6.122-1.045-12.245-3.584v-18.368q6.57 2.987 14.187 4.928 7.616 1.942 13.44 1.942 6.421 0 9.258-1.942 2.838-1.941 2.838-5.077 0-2.09-1.195-3.733-1.045-1.643-4.779-3.734-3.733-2.09-11.648-5.376-7.765-3.285-12.693-6.421-4.779-3.285-7.168-7.765-2.39-4.63-2.39-11.5 0-11.348 8.811-17.023 8.811-5.675 23.446-5.675 7.616 0 14.485 1.494 6.87 1.493 14.187 4.928l-6.72 15.978q-5.974-2.538-11.35-4.181-5.376-1.792-10.9-1.792-9.857 0-9.857 5.376 0 1.941 1.195 3.584 1.344 1.493 4.928 3.285 3.733 1.792 10.901 4.779 7.019 2.837 12.096 5.973 5.077 2.987 7.765 7.616 2.838 4.63 2.838 11.798zm51.534 7.914q3.733 0 7.168-.597 3.434-.747 6.87-1.941v16.576q-3.585 1.642-8.96 2.688-5.228 1.045-11.5 1.045-7.317 0-13.14-2.39-5.676-2.389-9.11-8.213-3.286-5.824-3.286-16.426V72.279h-10.602V62.87l12.245-7.467 6.421-17.173h14.187v17.323h22.848v16.725h-22.848v39.275q0 4.629 2.688 7.018 2.688 2.24 7.019 2.24zm41.603-97.216q4.928 0 8.512 2.39 3.584 2.24 3.584 8.512 0 6.122-3.584 8.512-3.584 2.389-8.512 2.389-5.077 0-8.661-2.39-3.435-2.389-3.435-8.511 0-6.272 3.435-8.512 3.584-2.39 8.661-2.39zm11.05 31.958v81.536h-22.25V55.554Zm57.597 65.258q3.733 0 7.168-.597 3.434-.747 6.87-1.941v16.576q-3.585 1.642-8.96 2.688-5.228 1.045-11.5 1.045-7.317 0-13.14-2.39-5.676-2.389-9.11-8.213-3.286-5.824-3.286-16.426V72.279h-10.602V62.87l12.245-7.467 6.421-17.173h14.187v17.323h22.848v16.725h-22.848v39.275q0 4.629 2.688 7.018 2.688 2.24 7.019 2.24zm105.219-65.258v81.536h-17.024l-2.987-10.454h-1.194q-3.883 6.272-10.752 9.11-6.72 2.837-14.336 2.837-13.141 0-21.056-7.019-7.915-7.168-7.915-22.848V55.554h22.25v47.637q0 8.81 3.137 13.29 3.136 4.331 10.005 4.331 10.155 0 13.888-6.87 3.733-7.018 3.733-20.01V55.554Zm57.531 65.258q3.733 0 7.168-.597 3.434-.747 6.87-1.941v16.576q-3.585 1.642-8.96 2.688-5.228 1.045-11.5 1.045-7.317 0-13.14-2.39-5.676-2.389-9.11-8.213-3.286-5.824-3.286-16.426V72.279h-10.602V62.87l12.245-7.467 6.421-17.173h14.187v17.323h22.848v16.725h-22.848v39.275q0 4.629 2.688 7.018 2.688 2.24 7.019 2.24zm64.003-66.752q16.875 0 26.73 9.707 9.857 9.557 9.857 27.328v10.752h-52.565q.298 9.408 5.525 14.784 5.376 5.376 14.784 5.376 7.765 0 14.187-1.493 6.57-1.643 13.44-4.928v17.173q-6.123 2.987-12.694 4.33-6.57 1.494-15.978 1.494-12.246 0-21.654-4.48-9.408-4.63-14.784-13.739-5.376-9.258-5.376-23.445 0-14.187 4.779-23.744 4.928-9.557 13.59-14.336 8.66-4.779 20.16-4.779zm.15 15.83q-6.571 0-10.753 4.18-4.18 4.182-4.928 12.993h31.211q-.15-7.317-4.032-12.245-3.733-4.928-11.499-4.928z" style="font-style:normal;font-variant:normal;font-weight:700;font-stretch:normal;font-size:149.33334351px;font-family:'Noto Sans';-inkscape-font-specification:'Noto Sans Bold';fill:#181d43;fill-opacity:1" transform="translate(-37.047 -6.243) scale(.26458)" aria-label="Church Ministries Institute"/></g></svg>