<?xml version="1.0" encoding="UTF-8" standalone="no"?>
<!-- Created with Inkscape (http://www.inkscape.org/) -->

<svg
   xmlns:dc="http://purl.org/dc/elements/1.1/"
   xmlns:cc="http://creativecommons.org/ns#"
   xmlns:rdf="http://www.w3.org/1999/02/22-rdf-syntax-ns#"
   xmlns:svg="http://www.w3.org/2000/svg"
   xmlns="http://www.w3.org/2000/svg"
   xmlns:xlink="http://www.w3.org/1999/xlink"
   xmlns:sodipodi="http://sodipodi.sourceforge.net/DTD/sodipodi-0.dtd"
   xmlns:inkscape="http://www.inkscape.org/namespaces/inkscape"
   version="1.1"
   id="svg3769"
   width="200"
   height="200"
   viewBox="0 0 200 200"
   sodipodi:docname="share.svg">
  <metadata
     id="metadata3775">
    <rdf:RDF>
      <cc:Work
         rdf:about="">
        <dc:format>image/svg+xml</dc:format>
        <dc:type
           rdf:resource="http://purl.org/dc/dcmitype/StillImage" />
        <dc:title></dc:title>
      </cc:Work>
    </rdf:RDF>
  </metadata>
  <defs
     id="defs3773">
    <linearGradient
       inkscape:collect="always"
       id="linearGradient869">
      <stop
         style="stop-color:#d1d257;stop-opacity:1"
         offset="0"
         id="stop865" />
      <stop
         style="stop-color:#c6dcea;stop-opacity:1"
         offset="1"
         id="stop867" />
    </linearGradient>
    <linearGradient
       inkscape:collect="always"
       xlink:href="#linearGradient869"
       id="linearGradient871"
       x1="-23.302259"
       y1="-35.432201"
       x2="-24.898306"
       y2="147.15536"
       gradientUnits="userSpaceOnUse" />
  </defs>
  <sodipodi:namedview
     pagecolor="#ffffff"
     bordercolor="#666666"
     borderopacity="1"
     objecttolerance="10"
     gridtolerance="10"
     guidetolerance="10"
     inkscape:pageopacity="0"
     inkscape:pageshadow="2"
     inkscape:window-width="1920"
     inkscape:window-height="1028"
     id="namedview3771"
     showgrid="false"
     inkscape:zoom="3.1327433"
     inkscape:cx="91.227531"
     inkscape:cy="93.28744"
     inkscape:window-x="0"
     inkscape:window-y="0"
     inkscape:window-maximized="1"
     inkscape:current-layer="layer4"
     showguides="true"
     inkscape:guide-bbox="true"
     inkscape:pagecheckerboard="true" />
  <g
     inkscape:groupmode="layer"
     id="layer1"
     inkscape:label="Bottom"
     style="display:inline"
     transform="translate(0,49.333328)">
    <rect
       y="-49.333328"
       x="0"
       height="200"
       width="200"
       id="rect845"
       style="display:inline;fill:url(#linearGradient871);fill-opacity:1;stroke:none;stroke-width:1.50848627;stroke-opacity:1" />
  </g>
  <g
     inkscape:groupmode="layer"
     id="layer2"
     inkscape:label="Middle"
     style="display:inline"
     transform="translate(0,49.333328)">
    <ellipse
       style="display:inline;fill:#79accd;fill-opacity:1;stroke-width:0.91729099"
       ry="72.116356"
       rx="76.450562"
       cy="50.560745"
       cx="100.71046"
       id="ellipse3800"
       clip-path="none" />
    <ellipse
       id="path3798"
       cx="100.83143"
       cy="50.560745"
       rx="64.55024"
       ry="58.632164"
       style="fill:#ffffff;fill-opacity:1;stroke-width:0.76000559" />
  </g>
  <g
     inkscape:groupmode="layer"
     id="layer3"
     inkscape:label="Top"
     style="display:inline"
     transform="translate(0,49.333328)" />
  <g
     inkscape:groupmode="layer"
     id="layer4"
     inkscape:label="Logo"
     transform="translate(0,49.333328)">
    <path
       d="m 97.382324,0.5821631 c 2.301755,-0.011549 4.603516,-0.0077 6.905266,0 0.0269,2.4287751 0.0616,4.8614011 0.0885,7.2940241 2.71746,0.015388 5.43877,0.02309 8.16007,-0.00385 0.30023,2.3479458 0.18475,4.7228328 0.0962,7.0823268 -2.74825,-0.05389 -5.50035,-0.05004 -8.2486,-0.02693 -0.0731,5.223215 0.11163,10.446429 0.0347,15.669647 3.7798,0.677437 7.1593,2.528851 10.3117,4.642001 0.22326,-3.825997 -0.35411,-7.983014 1.68976,-11.439496 2.35948,-4.491888 7.41334,-7.548067 12.51724,-7.201649 2.77134,-0.107773 5.46185,0.885292 7.73666,2.421079 3.6528,2.474965 5.82368,6.793644 5.9507,11.17391 -0.0501,11.936024 -0.0192,23.872066 -0.0231,35.804235 -0.0308,2.027445 0.0131,4.027176 0.0311,6.023829 -2.22581,0.07544 -4.75774,0.08468 -7.00946,0 -0.0847,-13.795132 0,-27.59413 -0.0462,-41.389268 -0.0269,-2.482663 -1.22786,-5.103893 -3.51422,-6.254772 -1.37797,-0.904536 -3.10621,-0.881441 -4.67664,-0.712083 -2.48267,0.365664 -4.56503,2.321001 -5.26941,4.699739 -0.27713,1.362578 -0.27328,2.763649 -0.29637,4.145471 0.008,13.186978 -0.008,26.373972 0.0115,39.560955 -2.32485,0.08083 -4.6497,0.100077 -6.97071,-0.0347 -0.12701,-6.878327 -0.0232,-13.756646 -0.05,-20.634966 -0.0115,-1.801375 -0.35797,-3.598904 -1.02386,-5.26941 -1.68975,-4.599667 -6.1316,-8.152375 -11.03534,-8.606567 -2.20168,-0.05774 -4.514988,-0.25404 -6.574248,0.696684 -4.484193,1.616618 -8.052298,5.712051 -8.791323,10.450289 -0.404155,2.936853 -0.146264,5.912205 -0.215551,8.864444 -0.08853,4.846009 0.18476,9.699712 -0.119317,14.541866 -2.28636,0.04617 -4.576573,0.07698 -6.85908,-0.06548 -0.07314,-13.548797 -0.0036,-27.101449 -0.03852,-40.654094 -0.01927,-1.728242 -0.265582,-3.548863 -1.320234,-4.976874 -1.401072,-2.132399 -4.080038,-3.160106 -6.566552,-2.744404 -0.300226,0.05003 -0.904537,0.150114 -1.204762,0.200154 -0.02692,0.0077 -0.08083,0.03079 -0.107775,0.03849 -0.908382,0.415701 -1.751337,0.950723 -2.567345,1.51654 -0.01927,0.01926 -0.06158,0.05774 -0.08083,0.07698 -0.569667,0.816008 -1.093141,1.666655 -1.512692,2.571193 -0.0077,0.02693 -0.02692,0.07698 -0.03852,0.103926 -0.05005,0.196303 -0.146271,0.592759 -0.196302,0.789062 -0.515784,2.059262 -0.273288,4.187808 -0.304078,6.285563 -0.01927,12.282443 0.03465,24.56489 -0.02692,36.851179 -2.297902,0.09238 -4.599658,0.08468 -6.901413,-0.01154 -0.130869,-10.496474 -0.0154,-20.992937 -0.06932,-31.489404 0.03466,-3.052327 -0.02313,-6.104655 0.03079,-9.153134 0.09238,-2.782893 0.354117,-5.700504 1.963042,-8.071542 1.762878,-3.248632 5.030759,-5.446465 8.521881,-6.470321 1.862963,-0.365664 3.775959,-0.269438 5.662016,-0.173208 1.008458,-0.01926 1.997677,0.177056 2.879112,0.685136 0.100078,0.04619 0.296381,0.138568 0.392613,0.180909 4.276332,1.947638 7.671229,5.985334 8.229353,10.723563 0.531172,2.274813 -0.01927,4.622757 0.446489,6.897569 1.7167,-1.13548 3.444944,-2.274812 5.31945,-3.133158 1.489592,-0.708232 3.133153,-0.962272 4.699736,-1.431862 0.0077,-5.23861 -0.02313,-10.48107 -0.04619,-15.719683 -2.736708,0 -5.469558,0.03079 -8.206267,0.01155 -0.392694,-2.324784 -0.215632,-4.684278 -0.238725,-7.0283738 h 8.464144 c 0.0036,-2.4364738 -0.0036,-4.8690968 0.0077,-7.3055714 z"
       id="path4920"
       inkscape:connector-curvature="0"
       style="opacity:1;fill:#00a3e4;stroke-width:0.384909"
       sodipodi:nodetypes="ccccccccccccccccccccccccccccccccccccccccccccccccccccccccccc" />
    <g
       transform="matrix(0.384909,0,0,0.384909,19.238094,-35.222074)"
       id="#273693ff">
      <path
         style="opacity:1;fill:#273693"
         inkscape:connector-curvature="0"
         d="m 134.36,153.54 c 0.07,-0.02 0.21,-0.08 0.28,-0.1 -0.07,0.02 -0.21,0.08 -0.28,0.1 z"
         id="path4923" />
      <path
         style="opacity:1;fill:#273693"
         inkscape:connector-curvature="0"
         d="m 127.48,157.68 c 0.05,-0.05 0.16,-0.15 0.21,-0.2 -0.05,0.05 -0.16,0.15 -0.21,0.2 z"
         id="path4925" />
      <path
         style="opacity:1;fill:#273693"
         inkscape:connector-curvature="0"
         d="m 123.45,164.63 c 0.03,-0.07 0.08,-0.2 0.1,-0.27 -0.02,0.07 -0.07,0.2 -0.1,0.27 z"
         id="path4927" />
      <path
         style="opacity:1;fill:#273693"
         inkscape:connector-curvature="0"
         d="m 205.02,208.03 c 6.01,-2.58 13.4,-1.75 18.56,2.32 4.52,3.35 6.8,9.11 6.72,14.65 -0.08,17.83 0.03,35.66 -0.08,53.49 -11.91,0.44 -23.85,0.21 -35.78,0.13 -0.27,-17.19 -0.05,-34.38 -0.15,-51.58 -0.82,-7.79 3.39,-15.95 10.73,-19.01 z"
         id="path4929" />
      <path
         style="opacity:1;fill:#273693"
         inkscape:connector-curvature="0"
         d="m 104.01,296.56 c 24.13,0.05 48.26,-0.11 72.38,0.11 0.06,6.05 0.2,12.11 -0.11,18.15 -24.08,0.06 -48.16,-0.01 -72.23,0.03 -0.06,-6.1 -0.03,-12.19 -0.04,-18.29 z"
         id="path4931" />
      <path
         style="opacity:1;fill:#273693"
         inkscape:connector-curvature="0"
         d="m 194.42,314.64 c -0.03,-5.98 -0.17,-11.96 0.1,-17.92 11.9,0.04 23.8,-0.07 35.69,0.05 0.11,5.88 0.06,11.76 0.08,17.65 -11.94,0.57 -23.91,0.19 -35.87,0.22 z"
         id="path4933" />
      <path
         style="opacity:1;fill:#273693"
         inkscape:connector-curvature="0"
         d="m 248.39,314.68 c -0.05,-5.98 -0.33,-11.99 0.18,-17.96 23.88,0.07 47.75,-0.02 71.62,0.07 0.02,5.76 0.26,11.54 -0.06,17.31 -0.97,1.12 -2.84,0.37 -4.15,0.63 -22.53,-0.1 -45.06,0 -67.59,-0.05 z"
         id="path4935" />
    </g>
  </g>
</svg>
