<svg width="433pt" height="433pt" viewBox="0 0 433 433" xmlns="http://www.w3.org/2000/svg"><path d="M297.58 48.55c7.2-2.71 14.89-3.44 22.45-4.47 7.63-.08 15.36-.63 22.87 1.01 13.47 2.77 26.03 11.78 31.37 24.68 4.34 8.69 5.01 18.67 4.75 28.22.4 8.8-1.68 17.42-3.26 26.01-.73 0-2.19.01-2.92.01.52-10.56-.34-21.11-1.22-31.62-1.27-10.13-7.24-19.9-16.58-24.43-6.43-3.6-13.9-4-21.04-4.85-5.84.94-11.84.75-17.59 2.29-9.74 2.58-19.57 5.01-28.75 9.27-7.75 3.85-15.7 7.3-23.12 11.81 4.74 2.57 10.04 3.86 14.96 6.04 16.15 7.11 31.39 16.6 44.28 28.71 9.31 7.74 16.72 17.43 23.76 27.22 4.31 7.79 9.58 15.12 12.33 23.69 6.89 15.68 9.75 32.83 10.18 49.86.46 14.54-4.44 28.4-7.73 42.37-5.8 16.91-15.22 32.51-27.09 45.86-3.43 3.26-5.75 7.59-9.77 10.23-10.19 9.06-21.14 17.33-33.11 23.88-12.93 6.63-26.54 12.14-40.75 15.27-8.7 2.39-17.73 3.07-26.63 4.31-13.08.21-26.22.57-39.14-1.81-3.02-.83-5.5 1.34-7.84 2.88-4.81 3.42-10.47 5.37-15.43 8.55-19.2 9.5-39.13 18.48-60.51 21.55-7.26 1.4-14.68.89-22.03.86-5.25-.66-10.46-1.85-15.51-3.46-7.3-3.96-14.63-8.66-19.26-15.74-4.71-7.45-7.18-16.07-8.2-24.77-.41-10.02 0-20.07 2-29.92 7.83-35.73 25.38-68.38 45.24-98.77 6.5-8.93 12.67-18.14 19.6-26.74.27 27.48.02 54.96.12 82.44 5.99.02 11.99.02 17.98 0 .1-34.9-.15-69.81.12-104.7 6.15-6.98 12.62-13.67 18.49-20.9 4.81-1.83 9.97 1.33 12.76 5.23 2.85 2.68 4.78 6.32 4.64 10.32.01 36.68-.02 73.36.01 110.05 6.33.02 12.65.02 18.98 0 .08-20.65-.11-41.31.09-61.95 2.17-13.72 13.87-24.58 27.06-27.85 9.17-.72 19.26-1.02 27.16 4.46 5.15 3.8 10.38 8.12 12.94 14.16 2.08 4.43 3.91 9.16 3.78 14.13-.04 19.02-.02 38.03-.01 57.05 6.32.02 12.65.02 18.98 0 .03-37-.01-74.01.02-111.01.59-4.6 2.69-9.57 6.7-12.21 3.67-1.29 7.23-3.5 11.26-3.14 6.24-.19 12.72 3.35 15.22 9.2 2.41 4.35 1.78 9.42 1.82 14.18-.02 34.33-.01 68.65 0 102.98 6.32.02 12.65.02 18.98 0 .02-35.68.01-71.35.01-107.02-.37-4.81-1.85-9.47-2.94-14.14-2.33-5.52-5.87-10.51-9.91-14.92-5.18-3.57-11.04-6.38-17.2-7.79-4.87-.21-9.8-.43-14.65.16-4.89 1.89-10.29 3.14-14.18 6.88-6.24 4.32-9.98 11.26-12.93 18.05-.79 7.64.02 15.4-1.23 22.99-4.91-2.85-9.57-6.14-14.8-8.39-3.83-1.95-8.11-2.53-12.21-3.64.15-13.72 0-27.44.06-41.16 7.32-.04 14.65.04 21.98-.02.02-5.99.02-11.99 0-17.98-7.33-.03-14.66.01-21.99-.02-.02-6.3.06-12.61-.07-18.91-5.95-.13-11.91-.13-17.86 0-.13 6.3-.05 12.61-.07 18.91-7.33.03-14.66-.01-21.99.02-.02 5.99-.03 11.99 0 17.98 7.33.06 14.66-.02 21.98.02-.23 13.68.5 27.36.08 41.03-2.43 1.66-5.75 1.42-8.5 2.48-6.27 2.34-12.02 5.86-17.52 9.61-.31-6.5.86-13.24-1.6-19.47-1.12-7.28-4.99-13.77-9.96-19.1-2.34-2.13-5.27-3.53-7.47-5.83-.77-2.56 1.74-3.95 3.41-5.32 4.68-3.25 7.99-8.03 12.57-11.41 2.33-1.73 4.4-3.79 6.41-5.89-8.67 2.69-17.29 5.77-25.36 9.94-4.04 2.81-9.6 4.16-11.89 8.92-3.61.07-7.25-.25-10.84.29-6.66 2.03-13.19 4.87-18.19 9.88-4.55 5.08-7.61 11.43-9.15 18.06-2.42.47-4.11 2.34-5.77 4.02-5.5 5.2-9.86 11.43-15.42 16.57-10.08 12.48-19.84 25.24-28.78 38.57-1.24-23.91 6.37-47.56 18.34-68.03C101.73 106.37 157.77 77.75 213 79c5.33-.03 10.69-.25 15.95.78 6.31-2.13 11.38-6.78 17.51-9.35 16.33-8.81 33.1-17.1 51.12-21.88m-98.13 163.89c-3.97 3.73-5.05 9.34-4.73 14.57.11 17.06-.09 34.12.19 51.18 11.68.11 23.37.22 35.05-.06.12-17.39-.01-34.79.07-52.18.24-5.97-2.53-12.1-7.34-15.67-6.87-5.33-17.43-4.23-23.24 2.16M73.28 294.23c-4.44 9.64-7.4 19.87-9.91 30.16-3.06 13.74-3.96 28.6 1.32 41.93 2.87 5.19 6.74 10.02 11.87 13.14 5.4 3.74 12.1 4.7 18.47 5.48 11.18.64 22.31-1.72 32.97-4.92 11.37-3.14 21.91-8.55 32.56-13.48 3.86-2.57 8.43-3.94 12.01-6.92-10.45-2.69-20.94-5.63-30.57-10.6-9.33-4.28-18.63-8.91-26.72-15.3-15.62-11.2-29.45-25.14-39.76-41.41-1.48-.98-1.66 1.01-2.24 1.92m30.74 2.74c-.04 5.8-.03 11.61-.01 17.42 24 .1 48.01.12 72.01-.02.07-5.79.06-11.59 0-17.38-24-.06-48-.06-72-.02m90.9.06c-.11 5.72-.14 11.44.05 17.16 11.64.05 23.29.26 34.92-.13.16-5.63.23-11.26-.06-16.89-11.63-.37-23.28-.12-34.91-.14m53.93 0c-.22 5.74-.16 11.48-.06 17.22 23.73.04 47.46.06 71.18-.03.07-5.74.05-11.48.02-17.21-23.72-.01-47.43-.07-71.14.02Z"/></svg>