<?xml version="1.0" encoding="UTF-8" ?>
<!DOCTYPE svg PUBLIC "-//W3C//DTD SVG 1.1//EN" "http://www.w3.org/Graphics/SVG/1.1/DTD/svg11.dtd">
<svg width="433pt" height="433pt" viewBox="0 0 433 433" version="1.1" xmlns="http://www.w3.org/2000/svg">
<g id="#f1f1f1ff">
<path fill="#f1f1f1" opacity="1.00" d=" M 317.46 45.66 C 319.65 44.04 322.52 45.04 325.03 44.77 C 331.59 44.48 338.23 44.72 344.52 46.52 C 347.33 47.07 349.89 48.99 352.83 48.63 L 351.79 49.70 C 355.94 50.03 358.49 53.44 361.95 55.13 C 363.94 57.24 365.99 59.28 368.00 61.37 C 370.06 64.69 373.02 67.64 373.50 71.73 C 373.88 72.14 374.64 72.97 375.02 73.38 C 375.47 75.39 376.17 77.33 376.43 79.38 C 377.39 81.24 377.26 83.37 377.45 85.40 C 378.64 87.39 378.27 89.77 378.35 91.98 C 378.24 96.64 378.53 101.32 378.16 105.97 C 377.94 106.38 377.49 107.19 377.27 107.59 C 377.39 111.65 376.69 115.80 375.30 119.56 C 375.29 120.77 375.29 121.98 375.32 123.19 C 374.75 123.15 373.61 123.09 373.04 123.05 C 373.48 116.26 373.20 109.45 373.79 102.67 C 372.02 99.31 373.19 95.25 372.59 91.60 C 371.52 90.13 371.69 88.29 371.53 86.58 C 371.17 85.56 370.84 84.53 370.56 83.49 C 369.84 82.14 369.16 80.77 368.58 79.36 C 366.36 76.44 364.86 72.51 361.41 70.86 C 360.13 69.84 358.87 68.78 357.52 67.86 C 355.85 67.09 354.17 66.33 352.50 65.58 C 351.49 65.24 350.50 64.87 349.52 64.48 C 348.08 64.27 346.63 64.05 345.36 63.31 C 342.69 63.09 339.76 63.75 337.37 62.28 C 335.12 62.20 332.87 62.20 330.63 62.27 C 327.59 64.00 323.91 62.92 320.59 63.26 C 319.21 64.58 317.28 64.14 315.57 64.33 C 314.40 65.24 312.92 65.21 311.54 65.40 C 310.55 65.80 309.56 66.18 308.55 66.52 C 307.28 67.07 305.89 67.23 304.54 67.44 C 301.50 68.42 298.33 69.02 295.44 70.44 C 294.47 70.83 293.49 71.17 292.49 71.46 C 291.11 72.03 289.56 72.25 288.40 73.25 C 288.05 73.19 287.35 73.05 287.00 72.98 L 287.74 74.30 C 285.78 73.99 284.18 75.16 282.56 76.02 C 280.53 77.03 278.50 78.19 276.22 78.49 C 275.83 78.97 275.05 79.91 274.66 80.39 C 274.13 80.34 273.07 80.26 272.54 80.22 C 271.18 81.83 269.27 82.68 267.36 83.42 C 264.95 84.18 262.76 86.62 265.15 88.84 C 265.71 88.85 266.83 88.87 267.39 88.88 C 269.43 89.79 271.58 90.46 273.53 91.58 C 275.25 92.07 276.95 92.62 278.69 93.06 C 279.10 93.43 279.92 94.19 280.33 94.56 C 281.58 94.49 282.65 94.87 283.54 95.71 C 283.76 95.73 284.21 95.77 284.43 95.79 C 285.38 96.42 286.36 97.03 287.34 97.61 C 288.73 98.19 290.10 98.81 291.47 99.44 C 292.83 100.30 294.13 101.26 295.53 102.07 C 297.26 102.95 298.87 104.06 300.59 104.99 C 302.78 106.03 304.45 107.86 306.59 108.98 C 308.83 110.00 310.35 112.14 312.66 112.99 C 314.65 114.68 316.23 116.94 318.65 118.09 C 322.22 121.55 326.00 124.77 329.65 128.09 C 330.52 128.75 331.12 129.61 331.46 130.67 C 335.16 133.76 337.88 137.65 340.95 141.30 C 342.79 144.64 345.48 147.40 347.61 150.54 C 348.72 153.35 350.42 155.86 351.95 158.45 C 352.89 160.16 354.00 161.77 355.00 163.44 C 355.66 164.87 356.37 166.28 357.24 167.60 C 357.27 168.07 357.33 168.99 357.36 169.46 C 358.33 171.17 359.69 172.85 359.19 174.97 L 360.14 174.67 C 360.43 176.31 360.96 177.90 361.43 179.51 C 362.04 180.41 362.38 181.42 362.45 182.52 C 364.87 187.52 365.42 193.19 366.87 198.52 C 367.40 200.09 367.21 201.76 367.31 203.39 C 369.03 206.40 368.04 210.05 368.26 213.36 C 369.96 215.90 368.98 219.11 369.23 221.97 C 368.93 225.17 369.84 228.68 368.28 231.63 C 368.01 234.23 368.80 237.09 367.49 239.48 C 366.33 242.05 366.54 244.94 365.47 247.51 C 365.30 248.89 365.25 250.33 364.45 251.54 C 364.30 252.92 364.14 254.31 363.60 255.61 C 363.34 256.69 362.92 257.69 362.34 258.63 C 362.33 260.34 362.35 262.05 362.43 263.76 L 361.24 262.80 C 361.57 264.59 360.69 266.10 359.83 267.57 C 359.19 269.31 358.62 271.08 358.10 272.86 L 357.35 273.09 C 357.70 274.93 356.60 276.31 355.38 277.52 C 355.32 278.03 355.20 279.07 355.14 279.59 C 354.05 280.78 353.12 282.11 352.19 283.44 C 352.25 283.80 352.35 284.51 352.40 284.86 L 351.49 285.09 C 350.67 287.53 348.95 289.50 347.98 291.86 C 347.06 292.67 346.20 293.56 345.78 294.75 C 345.09 295.63 344.42 296.53 343.98 297.57 C 342.87 298.88 341.57 300.09 340.96 301.73 C 338.19 304.10 336.61 307.47 333.90 309.89 C 330.77 312.54 328.91 316.30 325.80 318.99 C 322.98 319.75 321.67 322.75 319.34 324.31 C 317.32 325.56 315.53 327.11 313.92 328.84 C 312.25 329.50 310.96 330.76 309.59 331.86 C 308.10 332.71 306.83 333.87 305.58 335.03 C 304.07 335.82 302.63 336.73 301.08 337.44 L 300.88 337.99 C 297.89 339.28 295.42 341.51 292.55 343.03 C 290.85 343.85 289.18 344.70 287.48 345.50 C 286.96 345.75 285.92 346.25 285.40 346.50 C 284.03 347.25 282.59 347.89 281.13 348.46 L 280.84 349.36 C 280.29 349.33 279.20 349.27 278.66 349.23 C 277.62 349.83 276.59 350.43 275.55 351.02 C 274.46 351.14 273.44 351.46 272.50 351.99 C 270.22 352.98 267.87 353.83 265.48 354.49 C 262.42 356.24 258.87 356.72 255.49 357.51 C 254.26 358.12 252.90 358.22 251.57 358.39 C 250.36 359.26 248.90 359.32 247.49 359.47 C 243.62 360.49 239.66 361.52 235.60 361.26 C 233.36 363.11 230.26 361.93 227.62 362.25 C 227.22 362.48 226.43 362.94 226.03 363.18 C 219.37 363.32 212.71 363.17 206.05 363.25 C 200.65 363.55 195.44 361.95 190.04 362.18 C 189.63 361.95 188.81 361.50 188.41 361.27 C 185.77 361.35 182.97 360.72 180.47 361.80 C 177.92 363.68 175.27 365.41 172.57 367.05 C 171.51 367.53 170.46 368.04 169.40 368.53 C 167.78 369.38 166.14 370.17 164.48 370.92 C 163.55 371.46 162.70 372.13 161.88 372.82 C 161.26 373.15 160.04 373.82 159.42 374.15 C 158.94 374.17 157.98 374.20 157.50 374.22 C 156.35 375.72 154.99 377.02 152.96 376.16 L 153.40 377.69 C 152.93 377.56 151.99 377.31 151.52 377.18 C 150.54 377.79 149.55 378.41 148.58 379.04 C 146.83 379.82 145.11 380.65 143.38 381.46 C 140.72 382.38 138.22 383.76 135.46 384.38 C 132.98 385.82 130.26 386.78 127.50 387.51 C 125.39 388.20 123.37 389.34 121.09 389.31 L 121.16 390.19 C 117.52 390.23 114.20 392.06 110.60 392.45 C 108.99 393.10 107.24 393.15 105.54 393.37 C 103.52 394.76 100.95 394.10 98.66 394.40 C 95.33 395.94 91.54 394.95 88.01 395.22 C 84.48 394.98 80.74 395.89 77.40 394.47 C 75.74 394.30 73.97 394.44 72.50 393.50 C 70.11 393.12 67.81 392.39 65.44 391.93 C 64.50 391.18 63.54 390.46 62.47 389.91 C 60.66 389.12 59.09 387.92 57.42 386.88 C 56.11 385.82 54.87 384.60 53.26 383.99 C 51.49 382.26 49.74 380.51 48.01 378.74 C 46.64 375.88 43.68 373.78 43.59 370.36 C 42.79 368.96 41.92 367.61 40.84 366.43 C 40.79 365.48 40.75 364.53 40.71 363.59 C 39.75 362.43 39.80 360.93 39.59 359.56 C 36.88 351.69 37.65 343.22 37.82 335.02 C 38.05 334.62 38.51 333.81 38.74 333.40 C 39.08 330.76 37.98 327.70 39.69 325.41 C 39.83 323.76 39.54 321.97 40.52 320.52 C 40.74 319.13 40.93 317.74 41.45 316.43 C 41.67 315.07 41.87 313.69 42.52 312.46 C 43.20 310.13 43.76 307.78 44.50 305.48 C 44.82 304.48 45.15 303.49 45.49 302.51 C 45.63 301.42 45.99 300.42 46.57 299.50 C 47.02 297.94 47.52 296.39 47.89 294.81 L 48.75 294.89 C 48.78 291.88 50.25 289.16 51.43 286.48 C 52.69 282.70 54.74 279.25 55.96 275.45 C 56.51 274.52 57.06 273.59 57.60 272.66 C 58.04 271.59 58.52 270.53 59.00 269.48 C 59.23 268.79 59.69 267.41 59.92 266.71 L 60.85 266.79 C 60.84 266.20 60.82 265.04 60.81 264.46 C 61.92 263.26 62.85 261.92 63.77 260.59 C 63.77 260.33 63.76 259.83 63.76 259.57 C 65.11 257.66 66.37 255.69 67.48 253.63 C 67.72 253.12 68.20 252.10 68.44 251.59 C 68.67 251.07 69.13 250.03 69.36 249.51 C 70.21 248.04 71.46 246.80 71.99 245.15 L 72.46 244.89 C 73.32 242.54 74.74 240.46 76.07 238.36 C 76.81 237.44 77.55 236.53 78.04 235.45 C 78.99 233.71 80.14 232.10 81.17 230.41 C 82.03 229.17 82.80 227.88 83.49 226.55 C 84.56 224.78 85.94 223.23 87.09 221.52 C 87.79 220.50 88.48 219.48 89.12 218.42 C 91.06 216.30 92.62 213.87 94.07 211.40 C 95.14 210.07 96.60 208.95 97.01 207.22 C 98.08 205.94 99.94 205.02 99.89 203.13 C 101.65 202.22 102.05 200.18 102.88 198.56 L 103.79 198.88 C 103.84 198.39 103.93 197.40 103.97 196.91 C 104.11 224.18 103.81 251.45 104.15 278.72 C 110.13 278.97 116.11 278.99 122.08 278.75 C 122.24 246.83 122.10 214.92 122.15 183.01 C 122.23 177.56 121.60 172.03 122.94 166.68 C 122.78 168.97 122.65 171.26 122.60 173.55 C 125.08 173.24 127.21 172.22 127.30 169.49 C 130.51 167.42 133.02 164.48 135.60 161.71 C 136.88 159.24 139.02 157.42 141.00 155.54 C 141.00 154.91 141.00 153.66 141.00 153.03 C 140.19 153.00 138.58 152.95 137.77 152.92 C 144.23 151.84 151.19 154.51 154.83 160.05 C 157.57 163.76 158.21 168.49 158.26 172.98 C 158.35 208.19 158.17 243.40 158.36 278.60 C 164.29 278.97 170.24 278.89 176.18 278.77 C 176.97 266.19 176.26 253.58 176.49 240.99 C 176.67 233.32 176.00 225.59 177.05 217.96 C 178.97 205.65 188.24 195.01 199.89 190.81 C 205.24 188.34 211.25 188.85 216.97 189.00 C 229.71 190.18 241.25 199.41 245.64 211.36 C 247.37 215.70 248.27 220.37 248.30 225.05 C 248.37 242.92 248.10 260.79 248.43 278.66 C 254.46 279.01 260.50 278.96 266.54 278.75 C 266.49 244.49 266.53 210.23 266.51 175.97 C 266.57 172.38 266.56 168.74 267.28 165.20 C 269.11 159.02 274.52 153.94 280.97 152.99 C 285.05 152.55 289.54 152.49 293.12 154.84 C 299.06 157.83 302.18 164.64 302.25 171.09 C 302.37 206.93 302.15 242.78 302.37 278.62 C 308.22 278.84 314.11 279.16 319.95 278.62 C 321.05 273.49 320.42 268.18 320.50 262.97 C 320.51 231.97 320.43 200.96 320.56 169.95 C 320.23 158.57 314.59 147.35 305.10 140.92 C 299.19 136.93 292.20 134.35 285.00 134.63 C 271.74 133.73 258.61 141.67 252.48 153.34 C 247.17 162.32 248.67 173.12 248.09 183.06 C 239.90 177.57 231.12 172.76 221.30 171.00 C 221.50 157.43 221.02 143.86 221.21 130.29 C 228.35 130.23 235.50 130.22 242.64 130.36 C 242.87 124.23 243.17 118.06 242.39 111.96 C 235.32 112.03 228.25 112.01 221.19 111.97 C 221.12 105.65 221.03 99.33 220.96 93.02 C 214.98 93.00 209.00 92.99 203.02 93.02 C 202.99 99.35 203.01 105.67 203.00 112.00 C 195.67 112.00 188.34 112.00 181.01 112.00 C 181.07 118.09 180.61 124.22 181.63 130.26 C 188.74 130.31 195.84 130.23 202.95 130.23 C 203.01 143.84 203.09 157.46 203.07 171.07 C 199.00 172.29 194.73 172.95 190.86 174.79 C 185.99 177.02 181.50 179.98 177.04 182.93 C 175.83 177.02 177.26 170.92 175.88 165.01 C 174.43 152.70 165.61 142.21 154.50 137.15 C 157.65 138.99 160.15 136.07 162.48 134.33 C 166.96 131.25 170.16 126.72 174.35 123.30 C 176.50 122.07 178.20 120.24 179.98 118.56 C 179.99 117.90 179.99 116.60 179.99 115.94 C 178.53 116.04 177.07 116.13 175.61 116.24 C 174.60 116.64 173.59 117.02 172.57 117.38 C 171.54 117.72 170.52 118.05 169.49 118.37 C 167.86 119.12 166.21 119.83 164.52 120.41 C 162.86 121.15 161.18 121.85 159.45 122.39 C 158.47 122.83 157.50 123.28 156.52 123.73 C 153.46 125.35 150.62 127.38 147.45 128.82 C 145.43 130.20 143.51 131.73 141.46 133.06 C 142.82 133.99 144.36 134.65 146.00 134.90 C 141.10 134.65 136.13 134.40 131.29 135.35 C 122.22 138.01 113.73 143.72 109.15 152.16 C 104.97 158.32 104.29 165.90 104.05 173.13 C 103.68 169.34 104.87 165.26 103.17 161.70 C 101.55 163.05 100.07 164.58 98.89 166.34 L 98.35 166.07 C 97.52 167.14 96.67 168.18 95.85 169.25 L 95.09 169.09 L 95.15 169.84 C 93.56 171.26 91.75 172.60 90.94 174.65 C 86.06 179.81 80.78 184.65 76.89 190.63 C 75.54 192.29 73.67 193.64 72.92 195.72 C 72.13 196.61 71.32 197.52 70.91 198.67 C 69.51 200.30 67.74 201.67 66.78 203.64 C 66.10 204.61 65.42 205.59 64.91 206.66 C 63.81 207.97 62.61 209.20 61.36 210.38 C 60.95 211.48 60.57 212.60 60.22 213.73 L 58.88 212.85 C 59.03 213.55 59.32 214.96 59.47 215.67 L 58.11 214.96 C 57.50 216.10 57.18 217.31 57.15 218.60 L 56.17 218.11 C 55.95 219.44 55.72 220.78 55.47 222.11 C 55.72 218.08 55.83 214.05 55.77 210.01 C 55.67 208.71 55.98 207.43 56.73 206.35 C 57.00 204.04 56.08 201.35 57.73 199.40 C 57.76 198.20 57.80 197.00 57.83 195.80 C 59.07 194.28 58.85 192.30 58.63 190.48 L 59.79 191.12 C 59.86 189.55 59.14 187.70 60.57 186.50 C 60.83 185.49 61.11 184.48 61.40 183.49 C 61.75 182.47 62.12 181.46 62.52 180.47 C 62.80 179.38 63.20 178.34 63.72 177.35 C 63.74 176.91 63.78 176.05 63.79 175.61 C 64.85 173.99 65.70 172.24 66.60 170.53 C 66.84 169.54 67.12 168.56 67.42 167.59 C 67.96 166.50 68.50 165.42 69.02 164.34 C 69.98 163.20 70.78 161.95 71.54 160.67 C 72.13 159.27 72.79 157.90 73.53 156.58 C 74.04 155.51 74.55 154.44 75.06 153.37 C 75.78 152.41 76.47 151.42 77.08 150.38 C 78.58 148.48 80.00 146.50 81.10 144.33 C 82.39 142.67 84.33 141.42 85.00 139.34 C 86.37 137.67 88.70 136.48 88.94 134.14 C 93.78 129.31 98.91 124.72 103.36 119.52 C 103.79 119.66 104.65 119.93 105.08 120.06 C 104.91 119.58 104.59 118.60 104.42 118.11 C 107.11 118.03 108.42 115.54 110.23 113.98 C 112.97 112.98 115.21 111.03 117.30 109.05 C 119.43 107.80 121.30 106.15 123.45 104.92 C 123.96 104.71 124.99 104.29 125.51 104.08 C 127.13 103.00 128.75 101.93 130.42 100.94 C 131.49 100.46 132.56 99.97 133.63 99.50 C 135.32 98.56 136.94 97.50 138.56 96.44 C 139.50 95.93 140.51 95.64 141.58 95.57 C 142.53 95.03 143.47 94.48 144.42 93.93 C 146.41 93.03 148.38 92.01 150.52 91.50 C 152.12 90.69 153.78 89.99 155.50 89.49 C 158.94 88.39 162.30 86.64 165.98 86.66 L 165.51 85.58 C 166.24 85.61 167.68 85.67 168.41 85.70 C 170.88 84.35 173.79 84.13 176.50 83.49 C 180.37 82.46 184.38 81.71 188.41 81.71 C 191.02 79.87 194.44 81.15 197.42 80.74 C 197.80 80.52 198.56 80.07 198.94 79.85 C 205.59 79.56 212.25 79.88 218.90 79.71 C 221.48 79.94 224.36 79.23 226.65 80.76 C 228.74 80.96 230.82 80.74 232.64 79.63 C 233.57 79.11 234.51 78.59 235.46 78.08 C 237.13 77.06 238.73 75.95 240.43 74.99 C 244.29 72.40 248.67 70.94 252.57 68.41 C 255.62 67.65 257.71 64.63 260.91 64.63 L 261.15 63.57 C 261.57 63.65 262.41 63.81 262.83 63.89 L 263.12 62.91 C 264.39 62.53 265.65 62.07 266.91 61.64 L 267.08 60.86 C 268.63 60.43 270.08 59.71 271.48 58.93 C 273.10 58.25 274.75 57.67 276.41 57.06 C 277.92 56.16 279.48 55.34 281.30 55.92 L 280.21 54.60 C 285.30 54.49 289.85 51.25 294.93 50.60 L 294.96 49.78 C 296.52 49.79 298.17 49.98 299.59 49.14 C 301.22 48.60 302.83 48.00 304.47 47.47 C 306.37 46.74 308.41 46.77 310.41 46.69 C 312.37 44.98 315.11 45.87 317.46 45.66 M 205.02 208.03 C 197.68 211.09 193.47 219.25 194.29 227.04 C 194.39 244.24 194.17 261.43 194.44 278.62 C 206.37 278.70 218.31 278.93 230.22 278.49 C 230.33 260.66 230.22 242.83 230.30 225.00 C 230.38 219.46 228.10 213.70 223.58 210.35 C 218.42 206.28 211.03 205.45 205.02 208.03 M 73.46 293.33 L 72.04 293.27 C 72.23 293.89 72.60 295.13 72.79 295.75 L 70.94 295.04 C 71.23 295.68 71.80 296.97 72.09 297.62 L 70.27 296.99 C 70.41 297.92 70.68 299.77 70.82 300.70 L 69.19 300.03 C 69.29 300.97 69.50 302.84 69.60 303.78 L 68.14 303.29 C 68.36 303.88 68.81 305.07 69.03 305.67 L 67.30 304.94 C 67.39 305.90 67.56 307.84 67.64 308.81 L 66.53 308.16 C 66.49 309.25 66.43 310.35 66.36 311.45 C 65.32 312.67 65.01 314.15 65.43 315.87 L 64.16 314.99 C 64.31 316.61 64.47 318.23 64.62 319.85 L 63.33 318.86 C 63.41 320.35 63.46 321.84 63.50 323.34 L 62.49 323.33 C 62.52 324.83 62.54 326.33 62.56 327.84 L 61.31 326.85 C 61.74 329.78 61.72 332.91 60.44 335.65 C 60.37 340.09 60.55 344.54 60.38 348.98 C 60.47 351.25 59.96 353.76 61.36 355.75 C 61.39 356.95 61.42 358.16 61.45 359.37 C 62.30 360.68 62.39 362.22 62.53 363.73 L 63.62 363.22 C 63.50 364.16 63.28 366.03 63.16 366.97 L 64.50 366.26 C 64.17 367.97 64.97 369.22 66.35 370.10 C 65.80 372.92 70.46 373.05 69.41 375.91 C 69.93 375.80 70.97 375.56 71.48 375.44 C 71.42 376.06 71.29 377.29 71.22 377.91 C 71.63 377.82 72.43 377.65 72.83 377.56 C 73.41 378.96 74.76 379.48 76.07 379.95 C 76.90 381.32 78.07 382.10 79.79 381.54 L 79.08 382.40 C 80.58 382.01 81.76 382.39 82.62 383.52 C 85.47 385.05 89.09 383.65 91.66 385.60 C 96.90 385.59 102.13 385.64 107.37 385.57 C 109.68 383.83 112.76 385.29 115.21 384.00 C 116.64 383.07 118.28 383.55 119.84 383.75 L 119.70 382.25 C 121.11 382.42 122.52 382.61 123.93 382.82 L 123.33 381.17 C 124.24 381.32 126.06 381.61 126.97 381.75 L 126.58 380.59 C 127.96 380.55 129.34 380.51 130.73 380.49 L 130.69 379.61 C 132.75 379.36 134.74 378.73 136.76 378.31 L 136.23 377.55 C 136.71 377.53 137.69 377.51 138.18 377.50 L 139.09 376.62 C 139.81 376.65 141.24 376.72 141.96 376.75 L 141.30 375.49 C 143.20 375.52 144.92 374.68 146.73 374.28 L 146.46 373.03 C 147.02 373.23 148.14 373.63 148.70 373.83 L 148.24 372.64 C 150.65 372.88 152.48 371.11 154.58 370.27 L 154.71 369.90 C 156.47 369.35 158.12 368.19 160.05 368.65 L 159.27 367.52 C 160.89 367.67 162.43 367.23 163.21 365.69 C 163.55 365.67 164.23 365.63 164.56 365.61 L 164.73 364.91 C 165.35 364.54 166.59 363.79 167.21 363.41 C 167.51 363.46 168.12 363.55 168.43 363.60 C 168.99 363.25 170.11 362.56 170.66 362.21 L 170.48 361.01 C 170.98 361.21 171.98 361.60 172.49 361.79 C 172.62 360.70 172.76 359.61 172.90 358.53 C 171.32 358.50 169.75 358.48 168.18 358.49 L 169.24 357.21 C 168.26 357.37 166.29 357.70 165.31 357.86 L 165.85 356.57 C 164.21 356.58 162.43 356.81 161.28 355.33 C 160.62 355.42 159.31 355.61 158.65 355.71 L 158.98 354.29 C 158.07 354.42 156.24 354.67 155.33 354.79 L 155.88 353.03 C 154.91 353.28 152.98 353.76 152.02 354.01 L 153.25 351.82 C 152.61 352.03 151.32 352.45 150.68 352.67 L 150.82 351.44 C 149.05 351.37 147.42 350.67 145.75 350.16 L 145.65 349.04 C 145.16 349.20 144.18 349.51 143.70 349.66 C 142.89 348.91 142.09 348.15 141.29 347.39 C 140.81 347.52 139.84 347.78 139.36 347.90 L 139.92 346.15 C 139.11 346.27 137.50 346.51 136.69 346.62 C 137.04 344.16 134.59 344.41 133.01 344.50 C 132.37 343.04 131.36 342.00 129.63 342.22 L 129.61 341.29 C 129.14 341.42 128.19 341.67 127.72 341.80 L 127.80 340.14 C 127.28 340.25 126.23 340.47 125.70 340.57 L 125.69 339.42 L 124.27 339.65 L 124.92 337.95 C 124.35 338.19 123.23 338.69 122.67 338.94 L 123.02 337.33 C 121.91 337.01 120.80 336.69 119.70 336.38 C 119.36 334.73 118.35 333.99 116.65 334.56 L 116.96 333.07 L 115.75 333.71 C 115.50 331.84 114.40 330.96 112.51 331.39 L 112.47 330.20 L 111.25 330.79 L 111.75 329.27 L 110.21 329.69 L 110.68 328.27 C 110.32 328.30 109.59 328.34 109.22 328.36 C 108.53 327.27 107.56 326.56 106.31 326.23 L 106.69 325.25 C 106.21 325.31 105.27 325.43 104.80 325.49 C 105.27 322.31 101.41 322.28 99.81 320.32 C 99.35 319.45 98.75 318.68 98.01 318.03 C 97.00 317.00 96.04 315.86 94.70 315.26 L 94.44 314.48 L 93.15 314.46 L 93.70 313.71 C 92.32 313.50 91.49 312.71 91.21 311.33 L 90.07 311.54 C 90.24 310.99 90.58 309.90 90.75 309.35 C 90.27 309.37 89.32 309.42 88.84 309.45 C 88.58 308.09 88.33 304.76 85.87 306.82 L 86.87 305.26 L 85.29 305.73 L 85.70 304.21 L 84.21 304.74 L 84.70 303.20 L 83.10 303.66 C 83.37 303.02 83.90 301.75 84.17 301.12 L 82.84 301.65 C 82.29 300.61 81.60 299.69 80.77 298.87 C 80.44 297.18 79.18 296.06 77.91 295.02 C 77.44 293.77 76.91 292.56 76.41 291.33 C 74.70 291.14 72.77 290.82 73.46 293.33 M 104.01 296.56 C 104.02 302.66 103.99 308.75 104.05 314.85 C 128.12 314.81 152.20 314.88 176.28 314.82 C 176.59 308.78 176.45 302.72 176.39 296.67 C 152.27 296.45 128.14 296.61 104.01 296.56 M 194.42 314.64 C 206.38 314.61 218.35 314.99 230.29 314.42 C 230.27 308.53 230.32 302.65 230.21 296.77 C 218.32 296.65 206.42 296.76 194.52 296.72 C 194.25 302.68 194.39 308.66 194.42 314.64 M 248.39 314.68 C 270.92 314.73 293.45 314.63 315.98 314.73 C 317.29 314.47 319.16 315.22 320.13 314.10 C 320.45 308.33 320.21 302.55 320.19 296.79 C 296.32 296.70 272.45 296.79 248.57 296.72 C 248.06 302.69 248.34 308.70 248.39 314.68 Z" />
</g>
<g id="#00a3e4ff">
<path fill="#00a3e4" opacity="1.00" d=" M 203.02 93.02 C 209.00 92.99 214.98 93.00 220.96 93.02 C 221.03 99.33 221.12 105.65 221.19 111.97 C 228.25 112.01 235.32 112.03 242.39 111.96 C 243.17 118.06 242.87 124.23 242.64 130.36 C 235.50 130.22 228.35 130.23 221.21 130.29 C 221.02 143.86 221.50 157.43 221.30 171.00 C 231.12 172.76 239.90 177.57 248.09 183.06 C 248.67 173.12 247.17 162.32 252.48 153.34 C 258.61 141.67 271.74 133.73 285.00 134.63 C 292.20 134.35 299.19 136.93 305.10 140.92 C 314.59 147.35 320.23 158.57 320.56 169.95 C 320.43 200.96 320.51 231.97 320.50 262.97 C 320.42 268.18 321.05 273.49 319.95 278.62 C 314.11 279.16 308.22 278.84 302.37 278.62 C 302.15 242.78 302.37 206.93 302.25 171.09 C 302.18 164.64 299.06 157.83 293.12 154.84 C 289.54 152.49 285.05 152.55 280.97 152.99 C 274.52 153.94 269.11 159.02 267.28 165.20 C 266.56 168.74 266.57 172.38 266.51 175.97 C 266.53 210.23 266.49 244.49 266.54 278.75 C 260.50 278.96 254.46 279.01 248.43 278.66 C 248.10 260.79 248.37 242.92 248.30 225.05 C 248.27 220.37 247.37 215.70 245.64 211.36 C 241.25 199.41 229.71 190.18 216.97 189.00 C 211.25 188.85 205.24 188.34 199.89 190.81 C 188.24 195.01 178.97 205.65 177.05 217.96 C 176.00 225.59 176.67 233.32 176.49 240.99 C 176.26 253.58 176.97 266.19 176.18 278.77 C 170.24 278.89 164.29 278.97 158.36 278.60 C 158.17 243.40 158.35 208.19 158.26 172.98 C 158.21 168.49 157.57 163.76 154.83 160.05 C 151.19 154.51 144.23 151.84 137.77 152.92 C 136.99 153.05 135.42 153.31 134.64 153.44 C 134.57 153.46 134.43 153.52 134.36 153.54 C 132.00 154.62 129.81 156.01 127.69 157.48 C 127.64 157.53 127.53 157.63 127.48 157.68 C 126.00 159.80 124.64 162.01 123.55 164.36 C 123.53 164.43 123.48 164.56 123.45 164.63 C 123.32 165.14 123.07 166.17 122.94 166.68 C 121.60 172.03 122.23 177.56 122.15 183.01 C 122.10 214.92 122.24 246.83 122.08 278.75 C 116.11 278.99 110.13 278.97 104.15 278.72 C 103.81 251.45 104.11 224.18 103.97 196.91 C 104.06 188.98 103.91 181.05 104.05 173.13 C 104.29 165.90 104.97 158.32 109.15 152.16 C 113.73 143.72 122.22 138.01 131.29 135.35 C 136.13 134.40 141.10 134.65 146.00 134.90 C 148.62 134.85 151.19 135.36 153.48 136.68 C 153.74 136.80 154.25 137.04 154.50 137.15 C 165.61 142.21 174.43 152.70 175.88 165.01 C 177.26 170.92 175.83 177.02 177.04 182.93 C 181.50 179.98 185.99 177.02 190.86 174.79 C 194.73 172.95 199.00 172.29 203.07 171.07 C 203.09 157.46 203.01 143.84 202.95 130.23 C 195.84 130.23 188.74 130.31 181.63 130.26 C 180.61 124.22 181.07 118.09 181.01 112.00 C 188.34 112.00 195.67 112.00 203.00 112.00 C 203.01 105.67 202.99 99.35 203.02 93.02 Z" />
</g>
<g id="#273693ff">
<path fill="#273693" opacity="1.00" d=" M 134.36 153.54 C 134.43 153.52 134.57 153.46 134.64 153.44 C 134.57 153.46 134.43 153.52 134.36 153.54 Z" />
<path fill="#273693" opacity="1.00" d=" M 127.48 157.68 C 127.53 157.63 127.64 157.53 127.69 157.48 C 127.64 157.53 127.53 157.63 127.48 157.68 Z" />
<path fill="#273693" opacity="1.00" d=" M 123.45 164.63 C 123.48 164.56 123.53 164.43 123.55 164.36 C 123.53 164.43 123.48 164.56 123.45 164.63 Z" />
<path fill="#273693" opacity="1.00" d=" M 205.02 208.03 C 211.03 205.45 218.42 206.28 223.58 210.35 C 228.10 213.70 230.38 219.46 230.30 225.00 C 230.22 242.83 230.33 260.66 230.22 278.49 C 218.31 278.93 206.37 278.70 194.44 278.62 C 194.17 261.43 194.39 244.24 194.29 227.04 C 193.47 219.25 197.68 211.09 205.02 208.03 Z" />
<path fill="#273693" opacity="1.00" d=" M 104.01 296.56 C 128.14 296.61 152.27 296.45 176.39 296.67 C 176.45 302.72 176.59 308.78 176.28 314.82 C 152.20 314.88 128.12 314.81 104.05 314.85 C 103.99 308.75 104.02 302.66 104.01 296.56 Z" />
<path fill="#273693" opacity="1.00" d=" M 194.42 314.64 C 194.39 308.66 194.25 302.68 194.52 296.72 C 206.42 296.76 218.32 296.65 230.21 296.77 C 230.32 302.65 230.27 308.53 230.29 314.42 C 218.35 314.99 206.38 314.61 194.42 314.64 Z" />
<path fill="#273693" opacity="1.00" d=" M 248.39 314.68 C 248.34 308.70 248.06 302.69 248.57 296.72 C 272.45 296.79 296.32 296.70 320.19 296.79 C 320.21 302.55 320.45 308.33 320.13 314.10 C 319.16 315.22 317.29 314.47 315.98 314.73 C 293.45 314.63 270.92 314.73 248.39 314.68 Z" />
</g>
</svg>
