<svg width="433pt" height="433pt" viewBox="0 0 433 433" xmlns="http://www.w3.org/2000/svg"><path fill="#f1f1f1" d="M317.46 45.66c2.19-1.62 5.06-.62 7.57-.89 6.56-.29 13.2-.05 19.49 1.75 2.81.55 5.37 2.47 8.31 2.11l-1.04 1.07c4.15.33 6.7 3.74 10.16 5.43 1.99 2.11 4.04 4.15 6.05 6.24 2.06 3.32 5.02 6.27 5.5 10.36.38.41 1.14 1.24 1.52 1.65.45 2.01 1.15 3.95 1.41 6 .96 1.86.83 3.99 1.02 6.02 1.19 1.99.82 4.37.9 6.58-.11 4.66.18 9.34-.19 13.99-.22.41-.67 1.22-.89 1.62.12 4.06-.58 8.21-1.97 11.97-.01 1.21-.01 2.42.02 3.63-.57-.04-1.71-.1-2.28-.14.44-6.79.16-13.6.75-20.38-1.77-3.36-.6-7.42-1.2-11.07-1.07-1.47-.9-3.31-1.06-5.02-.36-1.02-.69-2.05-.97-3.09-.72-1.35-1.4-2.72-1.98-4.13-2.22-2.92-3.72-6.85-7.17-8.5-1.28-1.02-2.54-2.08-3.89-3-1.67-.77-3.35-1.53-5.02-2.28-1.01-.34-2-.71-2.98-1.1-1.44-.21-2.89-.43-4.16-1.17-2.67-.22-5.6.44-7.99-1.03-2.25-.08-4.5-.08-6.74-.01-3.04 1.73-6.72.65-10.04.99-1.38 1.32-3.31.88-5.02 1.07-1.17.91-2.65.88-4.03 1.07-.99.4-1.98.78-2.99 1.12-1.27.55-2.66.71-4.01.92-3.04.98-6.21 1.58-9.1 3-.97.39-1.95.73-2.95 1.02-1.38.57-2.93.79-4.09 1.79-.35-.06-1.05-.2-1.4-.27l.74 1.32c-1.96-.31-3.56.86-5.18 1.72-2.03 1.01-4.06 2.17-6.34 2.47-.39.48-1.17 1.42-1.56 1.9-.53-.05-1.59-.13-2.12-.17-1.36 1.61-3.27 2.46-5.18 3.2-2.41.76-4.6 3.2-2.21 5.42l2.24.04c2.04.91 4.19 1.58 6.14 2.7 1.72.49 3.42 1.04 5.16 1.48.41.37 1.23 1.13 1.64 1.5 1.25-.07 2.32.31 3.21 1.15l.89.08c.95.63 1.93 1.24 2.91 1.82 1.39.58 2.76 1.2 4.13 1.83 1.36.86 2.66 1.82 4.06 2.63 1.73.88 3.34 1.99 5.06 2.92 2.19 1.04 3.86 2.87 6 3.99 2.24 1.02 3.76 3.16 6.07 4.01 1.99 1.69 3.57 3.95 5.99 5.1 3.57 3.46 7.35 6.68 11 10 .87.66 1.47 1.52 1.81 2.58 3.7 3.09 6.42 6.98 9.49 10.63 1.84 3.34 4.53 6.1 6.66 9.24 1.11 2.81 2.81 5.32 4.34 7.91.94 1.71 2.05 3.32 3.05 4.99.66 1.43 1.37 2.84 2.24 4.16l.12 1.86c.97 1.71 2.33 3.39 1.83 5.51l.95-.3c.29 1.64.82 3.23 1.29 4.84.61.9.95 1.91 1.02 3.01 2.42 5 2.97 10.67 4.42 16 .53 1.57.34 3.24.44 4.87 1.72 3.01.73 6.66.95 9.97 1.7 2.54.72 5.75.97 8.61-.3 3.2.61 6.71-.95 9.66-.27 2.6.52 5.46-.79 7.85-1.16 2.57-.95 5.46-2.02 8.03-.17 1.38-.22 2.82-1.02 4.03-.15 1.38-.31 2.77-.85 4.07-.26 1.08-.68 2.08-1.26 3.02-.01 1.71.01 3.42.09 5.13l-1.19-.96c.33 1.79-.55 3.3-1.41 4.77-.64 1.74-1.21 3.51-1.73 5.29l-.75.23c.35 1.84-.75 3.22-1.97 4.43l-.24 2.07c-1.09 1.19-2.02 2.52-2.95 3.85.06.36.16 1.07.21 1.42l-.91.23c-.82 2.44-2.54 4.41-3.51 6.77-.92.81-1.78 1.7-2.2 2.89-.69.88-1.36 1.78-1.8 2.82-1.11 1.31-2.41 2.52-3.02 4.16-2.77 2.37-4.35 5.74-7.06 8.16-3.13 2.65-4.99 6.41-8.1 9.1-2.82.76-4.13 3.76-6.46 5.32-2.02 1.25-3.81 2.8-5.42 4.53-1.67.66-2.96 1.92-4.33 3.02-1.49.85-2.76 2.01-4.01 3.17-1.51.79-2.95 1.7-4.5 2.41l-.2.55c-2.99 1.29-5.46 3.52-8.33 5.04-1.7.82-3.37 1.67-5.07 2.47l-2.08 1c-1.37.75-2.81 1.39-4.27 1.96l-.29.9c-.55-.03-1.64-.09-2.18-.13-1.04.6-2.07 1.2-3.11 1.79a7.91 7.91 0 0 0-3.05.97 53.29 53.29 0 0 1-7.02 2.5c-3.06 1.75-6.61 2.23-9.99 3.02-1.23.61-2.59.71-3.92.88-1.21.87-2.67.93-4.08 1.08-3.87 1.02-7.83 2.05-11.89 1.79-2.24 1.85-5.34.67-7.98.99-.4.23-1.19.69-1.59.93-6.66.14-13.32-.01-19.98.07-5.4.3-10.61-1.3-16.01-1.07-.41-.23-1.23-.68-1.63-.91-2.64.08-5.44-.55-7.94.53-2.55 1.88-5.2 3.61-7.9 5.25-1.06.48-2.11.99-3.17 1.48-1.62.85-3.26 1.64-4.92 2.39-.93.54-1.78 1.21-2.6 1.9-.62.33-1.84 1-2.46 1.33-.48.02-1.44.05-1.92.07-1.15 1.5-2.51 2.8-4.54 1.94l.44 1.53c-.47-.13-1.41-.38-1.88-.51-.98.61-1.97 1.23-2.94 1.86-1.75.78-3.47 1.61-5.2 2.42-2.66.92-5.16 2.3-7.92 2.92-2.48 1.44-5.2 2.4-7.96 3.13-2.11.69-4.13 1.83-6.41 1.8l.07.88c-3.64.04-6.96 1.87-10.56 2.26-1.61.65-3.36.7-5.06.92-2.02 1.39-4.59.73-6.88 1.03-3.33 1.54-7.12.55-10.65.82-3.53-.24-7.27.67-10.61-.75-1.66-.17-3.43-.03-4.9-.97-2.39-.38-4.69-1.11-7.06-1.57-.94-.75-1.9-1.47-2.97-2.02-1.81-.79-3.38-1.99-5.05-3.03-1.31-1.06-2.55-2.28-4.16-2.89-1.77-1.73-3.52-3.48-5.25-5.25-1.37-2.86-4.33-4.96-4.42-8.38-.8-1.4-1.67-2.75-2.75-3.93-.05-.95-.09-1.9-.13-2.84-.96-1.16-.91-2.66-1.12-4.03-2.71-7.87-1.94-16.34-1.77-24.54.23-.4.69-1.21.92-1.62.34-2.64-.76-5.7.95-7.99.14-1.65-.15-3.44.83-4.89.22-1.39.41-2.78.93-4.09.22-1.36.42-2.74 1.07-3.97.68-2.33 1.24-4.68 1.98-6.98.32-1 .65-1.99.99-2.97.14-1.09.5-2.09 1.08-3.01.45-1.56.95-3.11 1.32-4.69l.86.08c.03-3.01 1.5-5.73 2.68-8.41 1.26-3.78 3.31-7.23 4.53-11.03.55-.93 1.1-1.86 1.64-2.79.44-1.07.92-2.13 1.4-3.18.23-.69.69-2.07.92-2.77l.93.08-.04-2.33c1.11-1.2 2.04-2.54 2.96-3.87 0-.26-.01-.76-.01-1.02 1.35-1.91 2.61-3.88 3.72-5.94l.96-2.04.92-2.08c.85-1.47 2.1-2.71 2.63-4.36l.47-.26c.86-2.35 2.28-4.43 3.61-6.53.74-.92 1.48-1.83 1.97-2.91.95-1.74 2.1-3.35 3.13-5.04.86-1.24 1.63-2.53 2.32-3.86 1.07-1.77 2.45-3.32 3.6-5.03.7-1.02 1.39-2.04 2.03-3.1 1.94-2.12 3.5-4.55 4.95-7.02 1.07-1.33 2.53-2.45 2.94-4.18 1.07-1.28 2.93-2.2 2.88-4.09 1.76-.91 2.16-2.95 2.99-4.57l.91.32c.05-.49.14-1.48.18-1.97.14 27.27-.16 54.54.18 81.81 5.98.25 11.96.27 17.93.03.16-31.92.02-63.83.07-95.74.08-5.45-.55-10.98.79-16.33-.16 2.29-.29 4.58-.34 6.87 2.48-.31 4.61-1.33 4.7-4.06 3.21-2.07 5.72-5.01 8.3-7.78 1.28-2.47 3.42-4.29 5.4-6.17v-2.51c-.81-.03-2.42-.08-3.23-.11 6.46-1.08 13.42 1.59 17.06 7.13 2.74 3.71 3.38 8.44 3.43 12.93.09 35.21-.09 70.42.1 105.62 5.93.37 11.88.29 17.82.17.79-12.58.08-25.19.31-37.78.18-7.67-.49-15.4.56-23.03 1.92-12.31 11.19-22.95 22.84-27.15 5.35-2.47 11.36-1.96 17.08-1.81 12.74 1.18 24.28 10.41 28.67 22.36a37.72 37.72 0 0 1 2.66 13.69c.07 17.87-.2 35.74.13 53.61 6.03.35 12.07.3 18.11.09-.05-34.26-.01-68.52-.03-102.78.06-3.59.05-7.23.77-10.77 1.83-6.18 7.24-11.26 13.69-12.21 4.08-.44 8.57-.5 12.15 1.85 5.94 2.99 9.06 9.8 9.13 16.25.12 35.84-.1 71.69.12 107.53 5.85.22 11.74.54 17.58 0 1.1-5.13.47-10.44.55-15.65.01-31-.07-62.01.06-93.02-.33-11.38-5.97-22.6-15.46-29.03-5.91-3.99-12.9-6.57-20.1-6.29-13.26-.9-26.39 7.04-32.52 18.71-5.31 8.98-3.81 19.78-4.39 29.72-8.19-5.49-16.97-10.3-26.79-12.06.2-13.57-.28-27.14-.09-40.71 7.14-.06 14.29-.07 21.43.07.23-6.13.53-12.3-.25-18.4-7.07.07-14.14.05-21.2.01-.07-6.32-.16-12.64-.23-18.95-5.98-.02-11.96-.03-17.94 0-.03 6.33-.01 12.65-.02 18.98h-21.99c.06 6.09-.4 12.22.62 18.26 7.11.05 14.21-.03 21.32-.03.06 13.61.14 27.23.12 40.84-4.07 1.22-8.34 1.88-12.21 3.72-4.87 2.23-9.36 5.19-13.82 8.14-1.21-5.91.22-12.01-1.16-17.92-1.45-12.31-10.27-22.8-21.38-27.86 3.15 1.84 5.65-1.08 7.98-2.82 4.48-3.08 7.68-7.61 11.87-11.03 2.15-1.23 3.85-3.06 5.63-4.74.01-.66.01-1.96.01-2.62-1.46.1-2.92.19-4.38.3-1.01.4-2.02.78-3.04 1.14-1.03.34-2.05.67-3.08.99-1.63.75-3.28 1.46-4.97 2.04-1.66.74-3.34 1.44-5.07 1.98-.98.44-1.95.89-2.93 1.34-3.06 1.62-5.9 3.65-9.07 5.09-2.02 1.38-3.94 2.91-5.99 4.24 1.36.93 2.9 1.59 4.54 1.84-4.9-.25-9.87-.5-14.71.45-9.07 2.66-17.56 8.37-22.14 16.81-4.18 6.16-4.86 13.74-5.1 20.97-.37-3.79.82-7.87-.88-11.43-1.62 1.35-3.1 2.88-4.28 4.64l-.54-.27c-.83 1.07-1.68 2.11-2.5 3.18l-.76-.16.06.75c-1.59 1.42-3.4 2.76-4.21 4.81-4.88 5.16-10.16 10-14.05 15.98-1.35 1.66-3.22 3.01-3.97 5.09-.79.89-1.6 1.8-2.01 2.95-1.4 1.63-3.17 3-4.13 4.97-.68.97-1.36 1.95-1.87 3.02-1.1 1.31-2.3 2.54-3.55 3.72-.41 1.1-.79 2.22-1.14 3.35l-1.34-.88c.15.7.44 2.11.59 2.82l-1.36-.71a7.997 7.997 0 0 0-.96 3.64l-.98-.49c-.22 1.33-.45 2.67-.7 4 .25-4.03.36-8.06.3-12.1-.1-1.3.21-2.58.96-3.66.27-2.31-.65-5 1-6.95.03-1.2.07-2.4.1-3.6 1.24-1.52 1.02-3.5.8-5.32l1.16.64c.07-1.57-.65-3.42.78-4.62.26-1.01.54-2.02.83-3.01.35-1.02.72-2.03 1.12-3.02.28-1.09.68-2.13 1.2-3.12.02-.44.06-1.3.07-1.74 1.06-1.62 1.91-3.37 2.81-5.08.24-.99.52-1.97.82-2.94.54-1.09 1.08-2.17 1.6-3.25.96-1.14 1.76-2.39 2.52-3.67.59-1.4 1.25-2.77 1.99-4.09l1.53-3.21c.72-.96 1.41-1.95 2.02-2.99 1.5-1.9 2.92-3.88 4.02-6.05 1.29-1.66 3.23-2.91 3.9-4.99 1.37-1.67 3.7-2.86 3.94-5.2 4.84-4.83 9.97-9.42 14.42-14.62.43.14 1.29.41 1.72.54-.17-.48-.49-1.46-.66-1.95 2.69-.08 4-2.57 5.81-4.13 2.74-1 4.98-2.95 7.07-4.93 2.13-1.25 4-2.9 6.15-4.13.51-.21 1.54-.63 2.06-.84 1.62-1.08 3.24-2.15 4.91-3.14 1.07-.48 2.14-.97 3.21-1.44 1.69-.94 3.31-2 4.93-3.06.94-.51 1.95-.8 3.02-.87.95-.54 1.89-1.09 2.84-1.64 1.99-.9 3.96-1.92 6.1-2.43 1.6-.81 3.26-1.51 4.98-2.01 3.44-1.1 6.8-2.85 10.48-2.83l-.47-1.08 2.9.12c2.47-1.35 5.38-1.57 8.09-2.21 3.87-1.03 7.88-1.78 11.91-1.78 2.61-1.84 6.03-.56 9.01-.97.38-.22 1.14-.67 1.52-.89 6.65-.29 13.31.03 19.96-.14 2.58.23 5.46-.48 7.75 1.05 2.09.2 4.17-.02 5.99-1.13.93-.52 1.87-1.04 2.82-1.55 1.67-1.02 3.27-2.13 4.97-3.09 3.86-2.59 8.24-4.05 12.14-6.58 3.05-.76 5.14-3.78 8.34-3.78l.24-1.06 1.68.32.29-.98c1.27-.38 2.53-.84 3.79-1.27l.17-.78c1.55-.43 3-1.15 4.4-1.93 1.62-.68 3.27-1.26 4.93-1.87 1.51-.9 3.07-1.72 4.89-1.14l-1.09-1.32c5.09-.11 9.64-3.35 14.72-4l.03-.82c1.56.01 3.21.2 4.63-.64 1.63-.54 3.24-1.14 4.88-1.67 1.9-.73 3.94-.7 5.94-.78 1.96-1.71 4.7-.82 7.05-1.03M205.02 208.03c-7.34 3.06-11.55 11.22-10.73 19.01.1 17.2-.12 34.39.15 51.58 11.93.08 23.87.31 35.78-.13.11-17.83 0-35.66.08-53.49.08-5.54-2.2-11.3-6.72-14.65-5.16-4.07-12.55-4.9-18.56-2.32m-131.56 85.3-1.42-.06c.19.62.56 1.86.75 2.48l-1.85-.71c.29.64.86 1.93 1.15 2.58l-1.82-.63c.14.93.41 2.78.55 3.71l-1.63-.67c.1.94.31 2.81.41 3.75l-1.46-.49c.22.59.67 1.78.89 2.38l-1.73-.73c.09.96.26 2.9.34 3.87l-1.11-.65c-.04 1.09-.1 2.19-.17 3.29-1.04 1.22-1.35 2.7-.93 4.42l-1.27-.88c.15 1.62.31 3.24.46 4.86l-1.29-.99c.08 1.49.13 2.98.17 4.48l-1.01-.01c.03 1.5.05 3 .07 4.51l-1.25-.99c.43 2.93.41 6.06-.87 8.8-.07 4.44.11 8.89-.06 13.33.09 2.27-.42 4.78.98 6.77l.09 3.62c.85 1.31.94 2.85 1.08 4.36l1.09-.51c-.12.94-.34 2.81-.46 3.75l1.34-.71c-.33 1.71.47 2.96 1.85 3.84-.55 2.82 4.11 2.95 3.06 5.81.52-.11 1.56-.35 2.07-.47-.06.62-.19 1.85-.26 2.47.41-.09 1.21-.26 1.61-.35.58 1.4 1.93 1.92 3.24 2.39.83 1.37 2 2.15 3.72 1.59l-.71.86c1.5-.39 2.68-.01 3.54 1.12 2.85 1.53 6.47.13 9.04 2.08 5.24-.01 10.47.04 15.71-.03 2.31-1.74 5.39-.28 7.84-1.57 1.43-.93 3.07-.45 4.63-.25l-.14-1.5c1.41.17 2.82.36 4.23.57l-.6-1.65c.91.15 2.73.44 3.64.58l-.39-1.16c1.38-.04 2.76-.08 4.15-.1l-.04-.88c2.06-.25 4.05-.88 6.07-1.3l-.53-.76c.48-.02 1.46-.04 1.95-.05l.91-.88c.72.03 2.15.1 2.87.13l-.66-1.26c1.9.03 3.62-.81 5.43-1.21l-.27-1.25 2.24.8-.46-1.19c2.41.24 4.24-1.53 6.34-2.37l.13-.37c1.76-.55 3.41-1.71 5.34-1.25l-.78-1.13c1.62.15 3.16-.29 3.94-1.83l1.35-.08.17-.7c.62-.37 1.86-1.12 2.48-1.5.3.05.91.14 1.22.19.56-.35 1.68-1.04 2.23-1.39l-.18-1.2c.5.2 1.5.59 2.01.78.13-1.09.27-2.18.41-3.26-1.58-.03-3.15-.05-4.72-.04l1.06-1.28c-.98.16-2.95.49-3.93.65l.54-1.29c-1.64.01-3.42.24-4.57-1.24-.66.09-1.97.28-2.63.38l.33-1.42c-.91.13-2.74.38-3.65.5l.55-1.76c-.97.25-2.9.73-3.86.98l1.23-2.19c-.64.21-1.93.63-2.57.85l.14-1.23c-1.77-.07-3.4-.77-5.07-1.28l-.1-1.12c-.49.16-1.47.47-1.95.62-.81-.75-1.61-1.51-2.41-2.27-.48.13-1.45.39-1.93.51l.56-1.75c-.81.12-2.42.36-3.23.47.35-2.46-2.1-2.21-3.68-2.12-.64-1.46-1.65-2.5-3.38-2.28l-.02-.93c-.47.13-1.42.38-1.89.51l.08-1.66c-.52.11-1.57.33-2.1.43l-.01-1.15-1.42.23.65-1.7c-.57.24-1.69.74-2.25.99l.35-1.61c-1.11-.32-2.22-.64-3.32-.95-.34-1.65-1.35-2.39-3.05-1.82l.31-1.49-1.21.64c-.25-1.87-1.35-2.75-3.24-2.32l-.04-1.19-1.22.59.5-1.52-1.54.42.47-1.42c-.36.03-1.09.07-1.46.09-.69-1.09-1.66-1.8-2.91-2.13l.38-.98-1.89.24c.47-3.18-3.39-3.21-4.99-5.17a8.009 8.009 0 0 0-1.8-2.29c-1.01-1.03-1.97-2.17-3.31-2.77l-.26-.78-1.29-.02.55-.75c-1.38-.21-2.21-1-2.49-2.38l-1.14.21.68-2.19c-.48.02-1.43.07-1.91.1-.26-1.36-.51-4.69-2.97-2.63l1-1.56-1.58.47.41-1.52-1.49.53.49-1.54-1.6.46c.27-.64.8-1.91 1.07-2.54l-1.33.53c-.55-1.04-1.24-1.96-2.07-2.78-.33-1.69-1.59-2.81-2.86-3.85-.47-1.25-1-2.46-1.5-3.69-1.71-.19-3.64-.51-2.95 2m30.55 3.23c.01 6.1-.02 12.19.04 18.29 24.07-.04 48.15.03 72.23-.03.31-6.04.17-12.1.11-18.15-24.12-.22-48.25-.06-72.38-.11m90.41 18.08c11.96-.03 23.93.35 35.87-.22-.02-5.89.03-11.77-.08-17.65-11.89-.12-23.79-.01-35.69-.05-.27 5.96-.13 11.94-.1 17.92m53.97.04c22.53.05 45.06-.05 67.59.05 1.31-.26 3.18.49 4.15-.63.32-5.77.08-11.55.06-17.31-23.87-.09-47.74 0-71.62-.07-.51 5.97-.23 11.98-.18 17.96Z"/><path fill="#00a3e4" d="M203.02 93.02c5.98-.03 11.96-.02 17.94 0 .07 6.31.16 12.63.23 18.95 7.06.04 14.13.06 21.2-.01.78 6.1.48 12.27.25 18.4-7.14-.14-14.29-.13-21.43-.07-.19 13.57.29 27.14.09 40.71 9.82 1.76 18.6 6.57 26.79 12.06.58-9.94-.92-20.74 4.39-29.72 6.13-11.67 19.26-19.61 32.52-18.71 7.2-.28 14.19 2.3 20.1 6.29 9.49 6.43 15.13 17.65 15.46 29.03-.13 31.01-.05 62.02-.06 93.02-.08 5.21.55 10.52-.55 15.65-5.84.54-11.73.22-17.58 0-.22-35.84 0-71.69-.12-107.53-.07-6.45-3.19-13.26-9.13-16.25-3.58-2.35-8.07-2.29-12.15-1.85-6.45.95-11.86 6.03-13.69 12.21-.72 3.54-.71 7.18-.77 10.77.02 34.26-.02 68.52.03 102.78-6.04.21-12.08.26-18.11-.09-.33-17.87-.06-35.74-.13-53.61a37.72 37.72 0 0 0-2.66-13.69c-4.39-11.95-15.93-21.18-28.67-22.36-5.72-.15-11.73-.66-17.08 1.81-11.65 4.2-20.92 14.84-22.84 27.15-1.05 7.63-.38 15.36-.56 23.03-.23 12.59.48 25.2-.31 37.78-5.94.12-11.89.2-17.82-.17-.19-35.2-.01-70.41-.1-105.62-.05-4.49-.69-9.22-3.43-12.93-3.64-5.54-10.6-8.21-17.06-7.13l-3.13.52c-.07.02-.21.08-.28.1-2.36 1.08-4.55 2.47-6.67 3.94-.05.05-.16.15-.21.2-1.48 2.12-2.84 4.33-3.93 6.68-.02.07-.07.2-.1.27-.13.51-.38 1.54-.51 2.05-1.34 5.35-.71 10.88-.79 16.33-.05 31.91.09 63.82-.07 95.74-5.97.24-11.95.22-17.93-.03-.34-27.27-.04-54.54-.18-81.81.09-7.93-.06-15.86.08-23.78.24-7.23.92-14.81 5.1-20.97 4.58-8.44 13.07-14.15 22.14-16.81 4.84-.95 9.81-.7 14.71-.45 2.62-.05 5.19.46 7.48 1.78.26.12.77.36 1.02.47 11.11 5.06 19.93 15.55 21.38 27.86 1.38 5.91-.05 12.01 1.16 17.92 4.46-2.95 8.95-5.91 13.82-8.14 3.87-1.84 8.14-2.5 12.21-3.72.02-13.61-.06-27.23-.12-40.84-7.11 0-14.21.08-21.32.03-1.02-6.04-.56-12.17-.62-18.26H203c.01-6.33-.01-12.65.02-18.98Z"/><path d="M134.36 153.54c.07-.02.21-.08.28-.1-.07.02-.21.08-.28.1Zm-6.88 4.14c.05-.05.16-.15.21-.2-.05.05-.16.15-.21.2Zm-4.03 6.95Zm81.57 43.4c6.01-2.58 13.4-1.75 18.56 2.32 4.52 3.35 6.8 9.11 6.72 14.65-.08 17.83.03 35.66-.08 53.49-11.91.44-23.85.21-35.78.13-.27-17.19-.05-34.38-.15-51.58-.82-7.79 3.39-15.95 10.73-19.01Zm-101.01 88.53c24.13.05 48.26-.11 72.38.11.06 6.05.2 12.11-.11 18.15-24.08.06-48.16-.01-72.23.03-.06-6.1-.03-12.19-.04-18.29Zm90.41 18.08c-.03-5.98-.17-11.96.1-17.92 11.9.04 23.8-.07 35.69.05.11 5.88.06 11.76.08 17.65-11.94.57-23.91.19-35.87.22Zm53.97.04c-.05-5.98-.33-11.99.18-17.96 23.88.07 47.75-.02 71.62.07.02 5.76.26 11.54-.06 17.31-.97 1.12-2.84.37-4.15.63-22.53-.1-45.06 0-67.59-.05Z" fill="#273693"/></svg>