<?xml version="1.0" encoding="UTF-8" ?>
<!DOCTYPE svg PUBLIC "-//W3C//DTD SVG 1.1//EN" "http://www.w3.org/Graphics/SVG/1.1/DTD/svg11.dtd">
<svg width="433pt" height="433pt" viewBox="0 0 433 433" version="1.1" xmlns="http://www.w3.org/2000/svg">
<g id="#000000ff">
<path fill="#000000" opacity="1.00" d=" M 297.58 48.55 C 304.78 45.84 312.47 45.11 320.03 44.08 C 327.66 44.00 335.39 43.45 342.90 45.09 C 356.37 47.86 368.93 56.87 374.27 69.77 C 378.61 78.46 379.28 88.44 379.02 97.99 C 379.42 106.79 377.34 115.41 375.76 124.00 C 375.03 124.00 373.57 124.01 372.84 124.01 C 373.36 113.45 372.50 102.90 371.62 92.39 C 370.35 82.26 364.38 72.49 355.04 67.96 C 348.61 64.36 341.14 63.96 334.00 63.11 C 328.16 64.05 322.16 63.86 316.41 65.40 C 306.67 67.98 296.84 70.41 287.66 74.67 C 279.91 78.52 271.96 81.97 264.54 86.48 C 269.28 89.05 274.58 90.34 279.50 92.52 C 295.65 99.63 310.89 109.12 323.78 121.23 C 333.09 128.97 340.50 138.66 347.54 148.45 C 351.85 156.24 357.12 163.57 359.87 172.14 C 366.76 187.82 369.62 204.97 370.05 222.00 C 370.51 236.54 365.61 250.40 362.32 264.37 C 356.52 281.28 347.10 296.88 335.23 310.23 C 331.80 313.49 329.48 317.82 325.46 320.46 C 315.27 329.52 304.32 337.79 292.35 344.34 C 279.42 350.97 265.81 356.48 251.60 359.61 C 242.90 362.00 233.87 362.68 224.97 363.92 C 211.89 364.13 198.75 364.49 185.83 362.11 C 182.81 361.28 180.33 363.45 177.99 364.99 C 173.18 368.41 167.52 370.36 162.56 373.54 C 143.36 383.04 123.43 392.02 102.05 395.09 C 94.79 396.49 87.37 395.98 80.02 395.95 C 74.77 395.29 69.56 394.10 64.51 392.49 C 57.21 388.53 49.88 383.83 45.25 376.75 C 40.54 369.30 38.07 360.68 37.05 351.98 C 36.64 341.96 37.05 331.91 39.05 322.06 C 46.88 286.33 64.43 253.68 84.29 223.29 C 90.79 214.36 96.96 205.15 103.89 196.55 C 104.16 224.03 103.91 251.51 104.01 278.99 C 110.00 279.01 116.00 279.01 121.99 278.99 C 122.09 244.09 121.84 209.18 122.11 174.29 C 128.26 167.31 134.73 160.62 140.60 153.39 C 145.41 151.56 150.57 154.72 153.36 158.62 C 156.21 161.30 158.14 164.94 158.00 168.94 C 158.01 205.62 157.98 242.30 158.01 278.99 C 164.34 279.01 170.66 279.01 176.99 278.99 C 177.07 258.34 176.88 237.68 177.08 217.04 C 179.25 203.32 190.95 192.46 204.14 189.19 C 213.31 188.47 223.40 188.17 231.30 193.65 C 236.45 197.45 241.68 201.77 244.24 207.81 C 246.32 212.24 248.15 216.97 248.02 221.94 C 247.98 240.96 248.00 259.97 248.01 278.99 C 254.33 279.01 260.66 279.01 266.99 278.99 C 267.02 241.99 266.98 204.98 267.01 167.98 C 267.60 163.38 269.70 158.41 273.71 155.77 C 277.38 154.48 280.94 152.27 284.97 152.63 C 291.21 152.44 297.69 155.98 300.19 161.83 C 302.60 166.18 301.97 171.25 302.01 176.01 C 301.99 210.34 302.00 244.66 302.01 278.99 C 308.33 279.01 314.66 279.01 320.99 278.99 C 321.01 243.31 321.00 207.64 321.00 171.97 C 320.63 167.16 319.15 162.50 318.06 157.83 C 315.73 152.31 312.19 147.32 308.15 142.91 C 302.97 139.34 297.11 136.53 290.95 135.12 C 286.08 134.91 281.15 134.69 276.30 135.28 C 271.41 137.17 266.01 138.42 262.12 142.16 C 255.88 146.48 252.14 153.42 249.19 160.21 C 248.40 167.85 249.21 175.61 247.96 183.20 C 243.05 180.35 238.39 177.06 233.16 174.81 C 229.33 172.86 225.05 172.28 220.95 171.17 C 221.10 157.45 220.95 143.73 221.01 130.01 C 228.33 129.97 235.66 130.05 242.99 129.99 C 243.01 124.00 243.01 118.00 242.99 112.01 C 235.66 111.98 228.33 112.02 221.00 111.99 C 220.98 105.69 221.06 99.38 220.93 93.08 C 214.98 92.95 209.02 92.95 203.07 93.08 C 202.94 99.38 203.02 105.69 203.00 111.99 C 195.67 112.02 188.34 111.98 181.01 112.01 C 180.99 118.00 180.98 124.00 181.01 129.99 C 188.34 130.05 195.67 129.97 202.99 130.01 C 202.76 143.69 203.49 157.37 203.07 171.04 C 200.64 172.70 197.32 172.46 194.57 173.52 C 188.30 175.86 182.55 179.38 177.05 183.13 C 176.74 176.63 177.91 169.89 175.45 163.66 C 174.33 156.38 170.46 149.89 165.49 144.56 C 163.15 142.43 160.22 141.03 158.02 138.73 C 157.25 136.17 159.76 134.78 161.43 133.41 C 166.11 130.16 169.42 125.38 174.00 122.00 C 176.33 120.27 178.40 118.21 180.41 116.11 C 171.74 118.80 163.12 121.88 155.05 126.05 C 151.01 128.86 145.45 130.21 143.16 134.97 C 139.55 135.04 135.91 134.72 132.32 135.26 C 125.66 137.29 119.13 140.13 114.13 145.14 C 109.58 150.22 106.52 156.57 104.98 163.20 C 102.56 163.67 100.87 165.54 99.21 167.22 C 93.71 172.42 89.35 178.65 83.79 183.79 C 73.71 196.27 63.95 209.03 55.01 222.36 C 53.77 198.45 61.38 174.80 73.35 154.33 C 101.73 106.37 157.77 77.75 213.00 79.00 C 218.33 78.97 223.69 78.75 228.95 79.78 C 235.26 77.65 240.33 73.00 246.46 70.43 C 262.79 61.62 279.56 53.33 297.58 48.55 M 199.45 212.44 C 195.48 216.17 194.40 221.78 194.72 227.01 C 194.83 244.07 194.63 261.13 194.91 278.19 C 206.59 278.30 218.28 278.41 229.96 278.13 C 230.08 260.74 229.95 243.34 230.03 225.95 C 230.27 219.98 227.50 213.85 222.69 210.28 C 215.82 204.95 205.26 206.05 199.45 212.44 M 73.28 294.23 C 68.84 303.87 65.88 314.10 63.37 324.39 C 60.31 338.13 59.41 352.99 64.69 366.32 C 67.56 371.51 71.43 376.34 76.56 379.46 C 81.96 383.20 88.66 384.16 95.03 384.94 C 106.21 385.58 117.34 383.22 128.00 380.02 C 139.37 376.88 149.91 371.47 160.56 366.54 C 164.42 363.97 168.99 362.60 172.57 359.62 C 162.12 356.93 151.63 353.99 142.00 349.02 C 132.67 344.74 123.37 340.11 115.28 333.72 C 99.66 322.52 85.83 308.58 75.52 292.31 C 74.04 291.33 73.86 293.32 73.28 294.23 M 104.02 296.97 C 103.98 302.77 103.99 308.58 104.01 314.39 C 128.01 314.49 152.02 314.51 176.02 314.37 C 176.09 308.58 176.08 302.78 176.02 296.99 C 152.02 296.93 128.02 296.93 104.02 296.97 M 194.92 297.03 C 194.81 302.75 194.78 308.47 194.97 314.19 C 206.61 314.24 218.26 314.45 229.89 314.06 C 230.05 308.43 230.12 302.80 229.83 297.17 C 218.20 296.80 206.55 297.05 194.92 297.03 M 248.85 297.03 C 248.63 302.77 248.69 308.51 248.79 314.25 C 272.52 314.29 296.25 314.31 319.97 314.22 C 320.04 308.48 320.02 302.74 319.99 297.01 C 296.27 297.00 272.56 296.94 248.85 297.03 Z" />
</g>
</svg>
